<?xml version="1.0" encoding="UTF-8" standalone="no"?>
<svg
   xmlns:dc="http://purl.org/dc/elements/1.1/"
   xmlns:cc="http://creativecommons.org/ns#"
   xmlns:rdf="http://www.w3.org/1999/02/22-rdf-syntax-ns#"
   xmlns:svg="http://www.w3.org/2000/svg"
   xmlns="http://www.w3.org/2000/svg"
   xmlns:sodipodi="http://sodipodi.sourceforge.net/DTD/sodipodi-0.dtd"
   xmlns:inkscape="http://www.inkscape.org/namespaces/inkscape"
   inkscape:version="1.0 (4035a4fb49, 2020-05-01)"
   sodipodi:docname="icon(1).svg"
   id="svg40"
   version="1.1"
   viewBox="0 0 300 300"
   data-v-1084b650="">
  <metadata
     id="metadata46">
    <rdf:RDF>
      <cc:Work
         rdf:about="">
        <dc:format>image/svg+xml</dc:format>
        <dc:type
           rdf:resource="http://purl.org/dc/dcmitype/StillImage" />
        <dc:title></dc:title>
      </cc:Work>
    </rdf:RDF>
  </metadata>
  <defs
     id="defs44" />
  <sodipodi:namedview
     inkscape:current-layer="svg40"
     inkscape:window-maximized="0"
     inkscape:window-y="4"
     inkscape:window-x="7"
     inkscape:cy="149.27711"
     inkscape:cx="150"
     inkscape:zoom="2.7666667"
     showgrid="false"
     id="namedview42"
     inkscape:window-height="803"
     inkscape:window-width="1729"
     inkscape:pageshadow="2"
     inkscape:pageopacity="0"
     guidetolerance="10"
     gridtolerance="10"
     objecttolerance="10"
     borderopacity="1"
     bordercolor="#666666"
     pagecolor="#ffffff" />
  <!---->
  <!---->
  <rect
     id="rect29"
     class="logo-background-square"
     height="300px"
     width="300px"
     y="0"
     x="0"
     fill="#FFFFFF"
     data-v-1084b650="" />
  <!---->
  <!---->
  <g
     style="fill:#000080;fill-opacity:1"
     transform="matrix(0.8499999999999999,0,0,0.8499999999999999,22.500006484985377,22.50005836486818)"
     stroke="none"
     fill="#FFD7D7"
     id="640fb903-7c97-3a8b-d0a7-369102908d0a"
     data-v-1084b650="">
    <svg
       style="fill:#000080;fill-opacity:1"
       id="svg37"
       version="1.1"
       viewBox="-205 207 100 100">
      <switch
         style="fill:#000080;fill-opacity:1"
         id="switch35">
        <g
           style="fill:#000080;fill-opacity:1"
           id="g33">
          <path
             style="fill:#000080;fill-opacity:1"
             id="path31"
             d="M-155 298.8c11.2 0 21.7-4.3 29.6-12.2 7.9-7.9 12.2-18.4 12.2-29.6 0-11.2-4.3-21.7-12.2-29.6-7.9-7.9-18.4-12.2-29.6-12.2s-21.7 4.3-29.6 12.2c-7.9 7.9-12.2 18.4-12.2 29.6 0 11.2 4.3 21.7 12.2 29.6 7.9 7.9 18.4 12.2 29.6 12.2zm2.4-7.1c-.8.1-1.6.1-2.4.1-1.1 0-2.2-.1-3.3-.2-3.6-5.6-6.3-11.6-7.9-17.9h17.7c.6 1.5 1.7 2.9 3 3.8-1.7 5-4.1 9.7-7.1 14.2zm9.5-2c1.9-3.5 3.4-7 4.6-10.7 2.9-.6 5.2-2.6 6.3-5.3h7.7c-4 7.3-10.7 13-18.6 16zm22.8-32.7c0 3.3-.5 6.5-1.3 9.6h-10.8c-.6-1.3-1.6-2.5-2.8-3.4.2-2.2.3-4.4.3-6.6 0-3.1-.2-6.2-.6-9.2h13.8c1 3 1.4 6.3 1.4 9.6zm-4.2-16.7h-12.2c-1.3-5.5-3.2-10.7-5.8-15.7 7.6 2.9 14 8.6 18 15.7zm-17.4 16.3c0 1.7-.1 3.4-.2 5.1-2.8.6-5.1 2.4-6.2 4.9h-19.3c-.4-3-.7-6.1-.7-9.1 0-1.9.1-3.8.3-5.7 2.6-.5 4.7-2.2 6-4.4h19.5c.4 3 .6 6.1.6 9.2zm-15.7-34.2c.9-.1 1.8-.1 2.6-.1 1 0 2 0 3 .1 3.6 5.6 6.3 11.6 7.9 17.9h-17.4c-.6-1.7-1.7-3.2-3.1-4.3 1.8-4.8 4.1-9.3 7-13.6zm-9.5 2c-1.7 3.2-3.2 6.6-4.4 10-3.1.6-5.6 2.9-6.6 5.8h-7.3c3.9-7.1 10.4-12.8 18.3-15.8zm-22.6 32.6c0-3.3.5-6.6 1.4-9.6h10.9c.6 1.1 1.5 2.1 2.5 2.9-.2 2.4-.4 4.8-.4 7.2 0 3.1.2 6.1.6 9.1h-13.6c-1-3.1-1.4-6.3-1.4-9.6zm16.2 16.6c1.3 5.4 3.2 10.7 5.8 15.7-7.6-3-13.9-8.6-17.8-15.7h12z" />
        </g>
      </switch>
    </svg>
  </g>
  <path
     id="path48"
     d="M -297.83133,149.45783 V -29.457831 H 150.18072 598.19277 V 149.45783 328.37349 H 150.18072 -297.83133 Z m 456.00174,106.97282 c 22.39869,-1.80973 42.05411,-9.56837 59.05851,-23.31233 3.9716,-3.21008 11.28213,-10.31179 14.43072,-14.0185 11.75122,-13.83425 20.04441,-31.40189 23.32088,-49.40102 2.21064,-12.14424 2.21064,-27.25336 0,-39.3976 C 252.0638,114.27841 245.05529,98.295408 235.36272,85.562722 228.3819,76.392351 218.70325,67.27397 209.27711,60.987112 182.11178,42.868941 147.27961,38.322889 115.84337,48.792781 99.718988,54.163037 86.132458,62.618816 74.217904,74.69897 c -4.84529,4.912644 -6.329205,6.59255 -9.481555,10.73362 -11.446648,15.03695 -18.663419,33.23632 -20.814235,52.4897 -1.048196,9.38312 -0.596139,22.47315 1.097386,31.77651 3.276434,17.99906 11.573639,35.57487 23.321259,49.40102 4.901928,5.76922 13.649277,13.80118 19.671289,18.06247 20.265542,14.34029 45.471682,21.26294 70.158362,19.26836 z"
     style="opacity:0.25;fill:#000080;fill-opacity:1;stroke-width:0.361446" />
  <path
     id="path50"
     d="M -297.83133,149.45783 V -29.457831 H 150.18072 598.19277 V 149.45783 328.37349 H 150.18072 -297.83133 Z m 457.95181,106.97272 c 0.29819,-0.0328 1.68072,-0.21666 3.07229,-0.40864 1.39157,-0.19198 3.0994,-0.42127 3.79518,-0.50952 2.83197,-0.35924 10.61899,-2.03788 11.92771,-2.57125 0.2982,-0.12153 0.91439,-0.28368 1.3693,-0.36033 0.45492,-0.0767 1.18685,-0.27614 1.62651,-0.4433 0.43966,-0.16716 0.89635,-0.28274 1.0149,-0.25686 0.11856,0.0259 0.48452,-0.17617 0.81326,-0.449 0.32873,-0.27284 0.59772,-0.40452 0.59772,-0.29262 0,0.41495 9.29704,-3.09051 9.75904,-3.67966 0.0994,-0.12675 0.42469,-0.27989 0.72289,-0.34031 0.92692,-0.18782 6.87177,-3.28942 10.76407,-5.61591 10.56781,-6.31658 22.53669,-17.11575 30.00083,-27.06891 2.90881,-3.87882 5.27686,-7.50653 4.90001,-7.50653 -0.14349,0 0.004,-0.20331 0.32404,-0.45181 0.6065,-0.46847 4.8476,-7.99007 5.04416,-8.94578 0.0613,-0.29819 0.21144,-0.62349 0.33361,-0.72289 0.57716,-0.46958 4.80213,-10.84337 4.41618,-10.84337 -0.11483,0 -0.006,-0.24398 0.24119,-0.54217 0.24749,-0.2982 0.32881,-0.54217 0.18073,-0.54217 -0.14809,0 -0.10341,-0.20332 0.0992,-0.45181 0.47143,-0.57803 2.28918,-6.49712 2.06432,-6.72198 -0.0931,-0.0931 -0.0224,-0.34696 0.15716,-0.56404 0.43916,-0.53087 2.02413,-8.20364 2.62012,-12.68386 0.65024,-4.8879 0.65024,-24.02776 0,-28.91566 -0.59599,-4.48022 -2.18096,-12.15299 -2.62012,-12.68386 -0.17956,-0.21708 -0.2503,-0.47091 -0.15716,-0.56404 0.22486,-0.22486 -1.59289,-6.14395 -2.06432,-6.72198 -0.20266,-0.24849 -0.24734,-0.45181 -0.0992,-0.45181 0.14808,0 0.0668,-0.24397 -0.18073,-0.54217 -0.24748,-0.29819 -0.35602,-0.54217 -0.24119,-0.54217 0.48665,0 -3.90643,-10.4986 -4.56951,-10.92017 -0.23663,-0.15047 -0.29378,-0.27607 -0.12697,-0.27911 0.40222,-0.007 -2.83081,-6.028946 -5.57924,-10.391491 -2.4475,-3.884881 -6.64392,-9.47567 -9.32917,-12.429044 -0.97215,-1.069221 -2.30577,-2.573288 -2.96357,-3.342376 -0.65779,-0.769084 -2.99205,-3.015231 -5.18714,-4.991436 -2.19513,-1.976208 -4.32217,-3.908703 -4.72677,-4.294435 -0.40457,-0.385731 -0.93318,-0.701331 -1.1747,-0.701331 -0.24148,0 -0.43909,-0.146295 -0.43909,-0.325102 0,-0.386314 -5.28169,-4.344322 -8.85542,-6.63608 -3.85684,-2.473334 -8.76585,-5.12143 -13.27547,-7.161282 -4.30409,-1.946888 -14.36403,-5.527189 -14.67014,-5.221063 -0.0994,0.09935 -0.35827,0.03833 -0.57535,-0.135607 -0.99737,-0.79908 -12.31182,-3.03154 -18.02859,-3.557226 -5.98095,-0.549976 -24.8695,-0.203458 -25.96956,0.476425 -0.13149,0.08126 -0.94677,0.232005 -1.81178,0.334992 -4.10118,0.488288 -14.19278,2.851456 -15.03658,3.521136 -0.24849,0.197223 -0.4518,0.261918 -0.4518,0.143772 0,-0.276864 -6.18058,1.890716 -6.77711,2.376792 -0.2485,0.202478 -0.45181,0.26118 -0.45181,0.130445 0,-0.130731 -0.36596,-0.03441 -0.81325,0.21402 -0.44729,0.248443 -0.89458,0.470739 -0.99398,0.493995 -1.28085,0.299635 -2.16867,0.654123 -2.16867,0.865894 0,0.144112 -0.20332,0.263899 -0.45181,0.266194 -0.66737,0.0061 -7.269363,3.359617 -7.582158,3.851338 -0.147542,0.231879 -0.270723,0.295432 -0.273759,0.141232 -0.0083,-0.424829 -2.174205,0.785078 -2.174205,1.214595 0,0.20542 -0.138614,0.287819 -0.30806,0.183105 -0.707638,-0.437342 -12.484084,7.962712 -16.858879,12.025301 -5.952868,5.528075 -14.546856,14.92697 -14.653772,16.0263 -0.01373,0.139297 -0.505951,0.768495 -1.094186,1.39821 -1.242326,1.329914 -3.81407,5.401518 -3.681488,5.828555 0.0497,0.160077 -0.06309,0.291047 -0.250645,0.291047 -0.410584,0 -4.47827,7.094075 -4.47827,7.810135 0,0.27672 -0.112908,0.50312 -0.250908,0.50312 -0.422747,0 -4.836192,10.10304 -5.181788,11.8619 -0.0657,0.33438 -0.311378,1.07744 -0.545942,1.65123 -0.234564,0.57378 -0.467444,1.30571 -0.517511,1.6265 -0.05007,0.3208 -0.192419,0.74591 -0.316341,0.94471 -0.90964,1.45924 -3.275555,12.46378 -4.07739,18.96511 -0.653567,5.29914 -0.741355,19.04476 -0.154732,24.22766 0.213756,1.88855 0.392042,3.67771 0.396199,3.9759 0.0365,2.62017 3.095953,15.74134 4.551022,19.51807 0.191476,0.49699 0.390217,1.06627 0.441647,1.26506 0.219184,0.84721 1.874584,5.06325 2.259,5.7533 0.230624,0.414 0.428646,0.83405 0.440042,0.93345 0.0742,0.64705 1.504594,3.612 1.743094,3.6131 0.160829,7.2e-4 0.191891,0.16401 0.06903,0.3628 -0.122863,0.1988 -0.05114,0.36145 0.15939,0.36145 0.210528,0 0.350552,0.12199 0.311165,0.27108 -0.14135,0.5351 0.489853,1.89759 0.879101,1.89759 0.218534,0 0.289172,0.10817 0.156973,0.24036 -0.248465,0.24847 1.426543,3.38411 2.017052,3.77596 0.183281,0.12162 0.296587,0.33773 0.25179,0.48023 -0.133359,0.42423 1.481425,3.09382 1.871396,3.09382 0.197809,0 0.279228,0.13012 0.180933,0.28917 -0.235764,0.38147 3.435701,5.76791 6.910995,10.13918 2.78859,3.50752 8.688289,9.62318 12.381687,12.83489 1.093373,0.95077 2.394578,2.09861 2.891566,2.55074 3.022084,2.74933 11.191337,8.54703 12.018072,8.52921 0.149097,-0.003 0.602314,0.32539 1.007169,0.73023 0.404819,0.40484 0.892771,0.63922 1.084337,0.52084 0.19153,-0.11838 0.348253,-0.0781 0.348253,0.0896 0,0.39205 2.166832,1.68206 2.174205,1.29439 0.0036,-0.16033 0.125024,-0.10846 0.271084,0.11528 0.24488,0.37513 7.146072,3.98316 7.769352,4.0619 0.15115,0.0191 0.76109,0.28618 1.35542,0.5935 0.59429,0.30733 1.08054,0.45336 1.08054,0.32452 0,-0.12885 0.21615,-0.0549 0.48029,0.16434 0.63119,0.52384 5.30284,2.27868 5.30284,1.99194 0,-0.12203 0.20371,-0.0528 0.45275,0.15386 0.63589,0.52774 6.90116,2.34556 11.83641,3.43423 3.54293,0.78154 9.23834,1.67104 14.09639,2.20156 1.1396,0.12445 17.84367,-0.0108 19.15662,-0.15511 z"
     style="opacity:0.25;fill:#000080;fill-opacity:1;stroke-width:0.361446" />
  <path
     id="path52"
     d="M -297.83133,149.45783 V -29.457831 H 150.18072 598.19277 V 149.45783 328.37349 H 150.18072 -297.83133 Z m 459.03615,106.93825 c 2.08735,-0.21307 3.84365,-0.51576 3.90285,-0.67265 0.0592,-0.15688 0.41003,-0.20619 0.7795,-0.10956 0.82482,0.21569 7.65972,-1.04909 12.3056,-2.27712 6.21915,-1.64388 12.73562,-4.12663 19.33735,-7.36747 11.17554,-5.48613 20.53608,-12.36299 29.83739,-21.92044 6.22897,-6.40051 8.42053,-9.2241 14.27042,-18.38619 6.26064,-9.80533 11.77615,-24.88066 14.1497,-38.6747 0.90907,-5.28302 0.90907,-28.69288 0,-33.9759 -3.60138,-20.92981 -12.69835,-39.986781 -26.15628,-54.794022 -2.86207,-3.149042 -10.18912,-10.071282 -12.27839,-11.60001 -0.62754,-0.459188 -2.742,-2.055893 -4.69879,-3.548234 -11.59688,-8.844347 -28.11174,-15.719779 -44.7626,-18.635465 -5.42332,-0.949662 -6.42405,-1.012825 -16.08434,-1.015232 -13.99207,-0.0036 -13.66775,-0.02075 -19.55151,1.041676 -11.81458,2.133379 -20.87367,5.0706 -30.28897,9.820576 -7.842726,3.956606 -11.70228,6.388427 -18.472774,11.639288 -5.574506,4.323307 -15.897904,14.876114 -19.39153,19.822409 -4.038636,5.71795 -6.631536,9.859388 -8.933939,14.269494 -4.50673,8.63234 -7.902054,18.17721 -9.782074,27.49917 -1.89895,9.41582 -2.118228,12.25329 -1.914355,24.77194 0.202027,12.40511 0.470942,14.70636 2.827815,24.19892 2.425984,9.77094 5.712267,17.96374 10.762279,26.83069 5.460264,9.58729 10.158214,15.57082 18.71678,23.83852 5.173337,4.99753 13.711446,11.79472 17.10253,13.61535 0.900145,0.48326 2.124542,1.18823 2.720928,1.56659 2.106867,1.33665 9.4989,5.04656 12.68053,6.36411 9.2782,3.84217 17.37922,5.90527 30.87369,7.8627 2.14735,0.31148 18.58695,0.18887 22.04819,-0.16444 z"
     style="opacity:0.25;fill:#000080;fill-opacity:1;stroke-width:0.361446" />
  <path
     id="path54"
     d="M -297.83133,149.45783 V -29.457831 H 150.18072 598.19277 V 149.45783 328.37349 H 150.18072 -297.83133 Z M 165,256.09693 c 13.61241,-2.37548 20.36349,-4.32249 29.27711,-8.44354 12.522,-5.78929 22.20228,-12.56542 32.12205,-22.4852 5.77221,-5.77219 8.59839,-9.19089 12.68877,-15.34891 7.14387,-10.755 11.69664,-21.15083 14.95872,-34.15663 2.37904,-9.48527 2.37839,-9.47803 2.36823,-25.84337 -0.009,-14.96215 -0.0119,-15.01186 -1.00236,-19.6988 C 249.43276,101.82653 235.86661,80.247347 213.61446,63.63369 202.48818,55.326734 190.8098,49.842293 176.28643,46.103613 166.61552,43.61408 164.51823,43.398264 150,43.39869 c -12.79713,3.62e-4 -13.33984,0.02913 -18.09625,0.958439 -13.13169,2.565698 -20.72617,5.140832 -31.60255,10.715779 -10.92661,5.600704 -17.460465,10.497633 -27.135501,20.337221 -3.394374,3.45214 -7.351301,7.868704 -8.793109,9.814587 -9.03656,12.195694 -15.520876,26.143034 -18.604138,40.016244 -2.205456,9.92351 -2.214325,10.02204 -2.213013,24.57832 0.0014,14.79844 0.130818,16.28183 2.161203,24.75903 2.291574,9.5677 4.846793,16.54401 9.002331,24.57832 5.762021,11.14029 9.908292,16.78838 18.98987,25.86816 9.376229,9.37442 15.075037,13.79358 24.062241,18.6592 11.649466,6.30696 20.960206,9.50773 35.019216,12.03861 5.77652,1.03987 5.92175,1.0475 17.75187,0.93215 7.22385,-0.0704 12.92548,-0.29042 14.45783,-0.55782 z"
     style="opacity:0.25;fill:#000080;fill-opacity:1;stroke-width:0.361446" />
  <path
     id="path56"
     d="M -297.83133,149.45783 V -29.457831 H 150.18072 598.19277 V 149.45783 328.37349 H 150.18072 -297.83133 Z m 468.34761,105.77193 c 11.65858,-2.38179 17.9538,-4.50719 27.50985,-9.28789 9.45365,-4.72946 17.61962,-10.45905 25.84446,-18.13356 14.62236,-13.64393 24.34312,-30.05572 29.8157,-50.33843 2.77576,-10.28773 2.75534,-10.08088 2.7463,-27.83133 l -0.008,-15.90361 -0.97457,-4.23547 C 250.07404,106.13692 241.43389,89.826206 226.46042,74.773966 211.41549,59.649918 196.11423,50.959981 175.3942,45.772319 166.10212,43.44587 165.43084,43.383792 149.63837,43.390413 l -14.2771,0.006 -5.42169,1.180981 c -13.33847,2.90546 -22.02072,6.074631 -32.530122,11.874047 -7.417518,4.093222 -12.163988,7.488777 -18.637627,13.333153 -7.218217,6.516549 -13.493494,13.598758 -17.7693,20.054165 -8.479156,12.801441 -13.31357,24.786941 -16.612333,41.185351 -0.79452,3.94963 -0.835833,4.90363 -0.829555,19.15663 0.0072,16.35873 0.0041,16.32534 2.393509,25.84337 3.803234,15.15 10.669923,29.24666 19.719318,40.48193 4.01447,4.98413 15.334771,15.97468 20.352976,19.76006 9.339072,7.04471 21.542274,13.11534 33.010954,16.42163 3.67221,1.05865 13.70143,3.25285 17.76965,3.88764 0.59638,0.0931 7.02108,0.11516 14.27711,0.0491 l 13.19277,-0.12008 6.23917,-1.27464 z"
     style="opacity:0.25;fill:#000080;fill-opacity:1;stroke-width:0.361446" />
  <path
     id="path58"
     d="M -297.83133,149.45783 V -29.457831 H 150.18072 598.19277 V 149.45783 328.37349 H 150.18072 -297.83133 Z M 171.3922,255.151 c 8.90682,-1.91476 16.43599,-4.29324 22.34274,-7.0581 13.12735,-6.14472 21.78918,-12.09211 31.76743,-21.81216 14.5645,-14.18765 23.47515,-29.99628 28.97288,-51.4016 1.8775,-7.30998 2.14898,-10.76767 2.14233,-27.28632 l -0.005,-13.99534 -1.77409,-6.97946 C 248.93664,103.40096 240.49435,88.306467 224.94307,73.166848 210.04008,58.658346 194.97072,50.454463 173.60534,45.218169 166.70805,43.527752 162.49753,43.19546 147.95696,43.194007 l -12.34442,-0.0011 -5.72787,1.281217 c -10.50712,2.350247 -17.61498,4.645283 -24.8024,8.008395 C 92.939313,58.164423 85.138771,63.493699 75.724193,72.539841 58.978681,88.629965 49.774764,105.55218 44.40626,130.12063 c -0.714094,3.26799 -0.803147,4.8964 -0.929009,16.98796 -0.165514,15.90093 0.115789,19.69736 2.037094,27.4924 2.4339,9.87471 4.774167,16.25136 9.078444,24.73651 5.846335,11.52507 10.973331,18.16752 22.574946,29.24775 7.490024,7.15345 12.521747,10.8754 20.964976,15.50776 10.702919,5.87213 18.866929,8.6093 36.686749,12.30008 0.89458,0.18528 7.75601,0.35429 15.24762,0.37558 l 13.62112,0.0387 7.70419,-1.65622 z"
     style="opacity:0.25;fill:#000080;fill-opacity:1;stroke-width:0.361446" />
  <path
     id="path60"
     d="M -297.83133,149.45783 V -29.457831 H 150.18072 598.19277 V 149.45783 328.37349 H 150.18072 -297.83133 Z m 468.7932,105.8844 c 12.17562,-2.7192 18.30199,-4.81017 26.9297,-9.19129 11.30472,-5.74049 18.43749,-10.84286 27.40821,-19.60621 14.98309,-14.63669 24.12969,-30.82535 29.31738,-51.88898 1.77589,-7.21062 1.98704,-10.05138 1.99077,-26.78277 l 0.004,-14.77763 -1.25353,-4.97773 c -3.94879,-15.68045 -8.84693,-27.40774 -15.73655,-37.676989 -4.13632,-6.165358 -8.05132,-10.783868 -14.49033,-17.094133 -14.71789,-14.423588 -29.46025,-22.651453 -49.8296,-27.81038 -7.93287,-2.009147 -8.26988,-2.039443 -24.75904,-2.225516 l -15.54216,-0.175388 -6.86747,1.618938 C 110.8264,48.833971 97.892566,54.672618 85.308036,64.086293 80.589253,67.616114 69.131169,78.818772 65.272988,83.674699 55.965795,95.388849 49.564337,108.84686 45.371219,125.5149 c -1.726543,6.86318 -1.97803,9.92225 -1.985483,24.15155 -0.0075,14.28261 0.296425,17.84366 2.173735,25.47064 2.520896,10.24169 5.480548,17.93897 10.34327,26.90017 5.167681,9.52318 9.15544,14.71286 18.1575,23.63023 10.372012,10.27445 16.660337,14.86986 28.048519,20.49743 7.78037,3.84474 14.48996,6.21609 23.49397,8.30343 9.85652,2.28497 9.70605,2.27098 24.82157,2.30626 l 13.97819,0.0326 6.5597,-1.46499 z"
     style="opacity:0.25;fill:#000080;fill-opacity:1;stroke-width:0.361446" />
  <path
     id="path62"
     d="M -297.83133,149.45783 V -29.457831 H 150.18072 598.19277 V 149.45783 328.37349 H 150.18072 -297.83133 Z m 471.42929,105.44836 c 9.46515,-2.34994 15.74917,-4.53143 22.48638,-7.80615 10.62253,-5.16323 18.48697,-10.47349 26.66201,-18.00282 15.50017,-14.27589 25.08947,-29.92194 30.86649,-50.36228 2.75003,-9.73005 2.73098,-9.54253 2.90527,-28.61925 l 0.15744,-17.2337 -1.46609,-5.63016 C 248.97896,103.32501 240.8306,88.583255 225.55995,73.610899 210.73952,59.079943 195.95801,50.758135 175.67624,45.526995 c -7.72923,-1.99355 -8.21848,-2.036519 -25.31479,-2.22347 l -16.08434,-0.175879 -7.22892,1.813789 c -8.85603,2.222046 -14.75392,4.173969 -21.14125,6.996752 C 96.893313,55.921623 88.362795,61.235588 81.506024,67.13841 75.85359,72.004428 66.81488,81.406963 63.453398,85.917647 55.076678,97.158148 49.070859,110.24796 45.328294,125.42169 c -1.853266,7.51381 -2.043528,10.26279 -1.8579,26.8434 0.183134,16.35729 0.305107,17.38259 3.30981,27.82174 3.065244,10.64949 8.751531,22.79583 14.59603,31.17823 5.293778,7.59255 16.768742,19.28701 25.083188,25.56301 8.172976,6.16922 19.295208,11.81746 29.944808,15.20694 4.68791,1.49205 14.25838,3.8316 17.94202,4.38602 1.15475,0.17381 8.93086,0.28341 17.28026,0.24356 l 15.18072,-0.0724 z"
     style="opacity:0.25;fill:#000080;fill-opacity:1;stroke-width:0.361446" />
  <path
     id="path64"
     d="M 64.044705,169.78916 C 62.25227,162.43899 61.98666,159.86581 62.002021,150 c 0.01513,-9.71498 0.340439,-12.73808 2.193421,-20.38333 l 0.972939,-4.01426 13.771231,6.5e-4 13.771231,6.4e-4 1.083934,1.71622 c 0.596164,0.94393 2.03032,2.64829 3.187014,3.78747 l 2.10308,2.07126 -0.451402,4.97694 c -0.629863,6.94456 -0.536881,22.07464 0.179996,29.28949 0.321268,3.23334 0.584125,6.12039 0.584125,6.41566 0,0.46728 -2.217887,0.53685 -17.114529,0.53685 H 65.168533 Z"
     style="opacity:0.25;fill:#000080;fill-opacity:1;stroke-width:0.361446" />
  <path
     id="path66"
     d="m 65.331039,174.18189 c -0.112844,-0.18259 -0.319364,-0.94067 -0.458933,-1.68464 -0.139569,-0.74397 -0.357648,-1.35267 -0.484621,-1.35267 -0.126972,0 -0.242764,-0.44729 -0.257316,-0.99398 -0.01455,-0.54668 -0.396542,-2.62048 -0.848867,-4.60843 -0.700849,-3.0802 -0.844889,-4.92339 -0.974486,-12.46988 -0.08364,-4.87048 -0.197606,-9.38404 -0.253253,-10.03012 -0.05565,-0.64609 0.0047,-1.1747 0.134118,-1.1747 0.129412,0 0.338739,-1.26054 0.465171,-2.8012 0.126432,-1.54067 0.76048,-5.15964 1.408994,-8.04217 l 1.179118,-5.24097 13.593704,-0.0947 13.593703,-0.0947 1.014459,1.54044 c 0.557952,0.84724 2.060969,2.62754 3.340037,3.95622 1.279069,1.32868 2.231732,2.56763 2.117027,2.75322 -0.813217,1.31582 -0.966506,23.91258 -0.228246,33.64622 0.258618,3.40975 0.391027,6.27873 0.294246,6.37551 -0.341552,0.34155 -33.426961,0.65284 -33.634855,0.31646 z"
     style="opacity:0.25;fill:#000080;fill-opacity:1;stroke-width:0.361446" />
  <path
     id="path68"
     d="m 64.917917,172.12679 c -1.557567,-5.35785 -2.070951,-9.46046 -2.407011,-19.23522 -0.239149,-6.95598 -0.218975,-10.53767 0.07024,-12.46988 0.490521,-3.27716 2.012992,-11.23619 2.501053,-13.07476 l 0.352464,-1.32778 13.276646,-0.12943 13.276646,-0.12943 0.903614,1.07575 c 0.496988,0.59167 2.001688,2.35584 3.343778,3.92039 l 2.440164,2.84463 -0.244818,2.05489 c -0.348733,2.92708 -0.351751,22.05249 -0.0048,30.64729 l 0.293324,7.2671 -1.699193,0.2329 c -0.934549,0.1281 -8.414943,0.2329 -16.623091,0.2329 H 65.472982 Z"
     style="opacity:0.25;fill:#000080;fill-opacity:1;stroke-width:0.361446" />
  <path
     id="path70"
     d="m 74.150988,104.72892 c 8.239652,-13.468355 18.60883,-23.628538 32.131462,-31.48384 3.11035,-1.806807 11.4363,-5.835441 12.06006,-5.835441 0.0877,0 -1.11308,2.652906 -2.66839,5.895348 -2.2599,4.711342 -6.6795,15.236755 -7.71194,18.366241 -0.10649,0.32279 -0.76931,0.694891 -1.47293,0.826892 -0.70363,0.132 -2.62776,0.911259 -4.27585,1.731688 -4.20007,2.090815 -7.945313,5.850832 -9.896014,9.935052 l -1.413772,2.96004 -9.122609,0.0219 -9.122609,0.0219 z"
     style="opacity:0.25;fill:#000080;fill-opacity:1;stroke-width:0.361446" />
  <path
     id="path72"
     d="m 73.902413,105.51085 c 6.549752,-11.312109 16.557912,-21.753739 28.206017,-29.427667 3.8203,-2.516862 15.28996,-8.504066 15.63336,-8.160667 0.0915,0.09145 -0.65075,1.924609 -1.64934,4.073686 -0.99859,2.149077 -1.86978,4.151388 -1.93597,4.449581 -0.0662,0.298193 -0.21657,0.623494 -0.3342,0.722892 -0.26343,0.222611 -3.84515,8.643334 -5.16378,12.140165 l -0.96605,2.561853 -3.05461,1.160307 c -1.68004,0.638169 -3.29079,1.39648 -3.57945,1.685136 -0.28865,0.288655 -0.65843,0.525027 -0.82173,0.525269 -0.84173,0.0013 -6.260756,5.291235 -6.260756,6.111675 0,0.21665 -0.124082,0.39391 -0.275737,0.39391 -0.289179,0 -0.586022,0.52142 -1.903376,3.34337 l -0.801473,1.71687 -5.467539,0.002 c -3.007146,0.001 -7.084408,0.10892 -9.060581,0.23976 l -3.593044,0.2379 1.028259,-1.77591 z"
     style="opacity:0.25;fill:#000080;fill-opacity:1;stroke-width:0.361446" />
  <path
     id="path74"
     d="m 73.373208,106.78818 c 6.33e-4,-0.44273 5.270902,-8.278268 7.159,-10.643602 6.787474,-8.503078 15.556484,-16.302635 23.927042,-21.2818 3.62326,-2.155272 12.67853,-6.821385 12.86874,-6.631169 0.0817,0.08173 -0.92742,2.573297 -2.24257,5.53681 -1.31515,2.963514 -3.55848,8.211382 -4.98517,11.661928 l -2.594,6.273721 -2.93608,1.184452 c -3.47917,1.403537 -6.240666,3.173394 -8.290539,5.313449 -1.891425,1.974631 -4.168972,5.327411 -3.906935,5.751391 0.110048,0.17806 7.23e-4,0.32375 -0.242931,0.32375 -0.24366,0 -0.344361,0.0987 -0.223781,0.21924 0.12058,0.12058 0.06082,0.40521 -0.132809,0.63253 -0.193626,0.22731 -0.549813,0.68865 -0.791527,1.0252 -0.387636,0.53972 -1.452173,0.625 -9.024102,0.72289 -4.721543,0.061 -8.584495,0.0211 -8.584338,-0.0888 z"
     style="opacity:0.25;fill:#000080;fill-opacity:1;stroke-width:0.361446" />
  <path
     id="path76"
     d="m 133.00447,105.88066 c -0.62225,-1.88543 -3.69374,-6.318619 -5.58673,-8.06352 l -1.64262,-1.514115 1.96921,-4.839547 c 3.57343,-8.782101 11.90467,-24.466016 15.1773,-28.571912 l 0.86427,-1.084337 5.54681,-0.112473 c 8.34518,-0.169216 7.83719,-0.404292 11.19933,5.182575 6.53518,10.859531 12.87776,25.335855 15.83711,36.146709 0.43354,1.58377 0.86952,3.16421 0.96885,3.5121 0.17058,0.59747 -1.04131,0.63253 -21.86393,0.63253 h -22.04451 z"
     style="opacity:0.25;fill:#000080;fill-opacity:1;stroke-width:0.361446" />
  <path
     id="path78"
     d="m 133.27592,106.22901 c -0.29104,-1.45522 -3.52055,-6.311943 -5.54003,-8.331427 l -1.66798,-1.66797 0.99952,-2.572638 c 3.46529,-8.919257 12.23916,-25.762254 15.79098,-30.313602 l 1.05776,-1.355421 h 6.28922 6.28923 l 1.08252,0.993976 c 2.08189,1.911619 8.4918,13.849328 12.70856,23.668231 2.10857,4.909899 6.46129,17.361471 6.46129,18.483441 0,0.29098 0.15744,0.58327 0.34986,0.64953 0.19243,0.0663 0.2191,0.3309 0.0593,0.58808 -0.22993,0.36997 -4.81857,0.51409 -21.97986,0.69038 l -21.68927,0.22279 z"
     style="opacity:0.25;fill:#000080;fill-opacity:1;stroke-width:0.361446" />
  <path
     id="path80"
     d="m 133.62594,106.93919 c -0.13885,-0.13884 -0.25245,-0.53998 -0.25245,-0.89141 0,-0.87975 -3.96016,-6.702715 -5.71313,-8.40048 l -1.43399,-1.388845 1.48225,-3.671396 c 1.66673,-4.128294 7.55261,-16.190899 10.17296,-20.848565 0.948,-1.685087 2.71136,-4.568313 3.91856,-6.407169 l 2.19491,-3.343373 h 6.18786 6.18787 l 0.91802,0.993976 c 4.64786,5.032387 13.83225,24.559867 18.48743,39.307232 0.50201,1.59036 1.01784,3.15876 1.14627,3.48533 0.20781,0.52838 -0.33621,0.61681 -4.94087,0.80312 -8.7219,0.35288 -38.08756,0.62972 -38.35569,0.36158 z"
     style="opacity:0.25;fill:#000080;fill-opacity:1;stroke-width:0.361446" />
  <path
     id="path82"
     d="m 118.02853,173.94578 c -0.20626,-0.65835 -0.85089,-6.58368 -1.32713,-12.19879 -0.4168,-4.91429 -0.24108,-22.51392 0.24068,-24.10586 0.15529,-0.51313 0.64112,-0.87582 1.37781,-1.0286 2.05708,-0.42661 6.32825,-2.68595 8.50987,-4.50151 1.1784,-0.98068 2.9295,-2.8463 3.89133,-4.14582 l 1.74879,-2.36278 24.61778,-10e-6 h 24.61778 l 0.40902,3.5241 c 0.80551,6.94022 1.25924,18.93331 0.97701,25.82444 l -0.27678,6.75819 -2.40132,0.77179 c -1.32073,0.42448 -3.27965,1.27215 -4.35315,1.88371 -2.76413,1.57467 -6.50325,5.23605 -7.98793,7.82183 l -1.26506,2.20329 -24.31857,0.004 c -19.14116,0.003 -24.34871,-0.0923 -24.46013,-0.44789 z"
     style="opacity:0.25;fill:#000080;fill-opacity:1;stroke-width:0.361446" />
  <path
     id="path84"
     d="m 128.05746,174.12678 -9.8341,-0.1022 -0.19601,-1.16891 c -0.84029,-5.01102 -1.27614,-12.98129 -1.2376,-22.63132 0.0448,-11.22378 0.15669,-12.62708 1.04158,-13.06747 0.29819,-0.1484 2.14681,-1.04287 4.10805,-1.98771 3.82639,-1.84338 7.05288,-4.49923 9.47579,-7.79989 l 1.297,-1.76687 h 24.35992 24.35992 l 0.1686,0.81325 c 0.67487,3.25524 1.27697,14.4669 1.29907,24.18983 0.021,9.24032 -0.14228,11.1415 -0.95691,11.1415 -0.27334,0 -0.4971,0.12199 -0.49724,0.27108 -1.4e-4,0.1491 -0.42802,0.29587 -0.95083,0.32615 -0.52282,0.0303 -1.05132,0.19294 -1.17445,0.36145 -0.12312,0.16851 -0.45301,0.35565 -0.73308,0.41587 -1.21048,0.2603 -2.92452,1.1511 -2.92452,1.5199 0,0.22067 -0.15537,0.3052 -0.34527,0.18783 -0.54697,-0.33804 -6.06936,5.19789 -7.47169,7.49001 l -1.27152,2.07831 -14.3413,-0.0843 c -7.88772,-0.0464 -18.76665,-0.13029 -24.17541,-0.1865 z"
     style="opacity:0.25;fill:#000080;fill-opacity:1;stroke-width:0.361446" />
  <path
     id="path86"
     d="m 141.47354,174.12657 -23.16501,-0.0957 -0.46227,-3.34073 c -0.50259,-3.6321 -0.97702,-29.78375 -0.57883,-31.90627 0.22057,-1.17575 0.48417,-1.38294 3.92427,-3.08453 4.53236,-2.24186 7.65943,-4.68158 9.91849,-7.73834 l 1.72114,-2.32889 24.2581,-0.0148 24.25809,-0.0148 0.23614,1.71687 c 0.58517,4.25465 0.99078,13.0388 1.05111,22.76344 0.0751,12.10486 0.31231,11.23045 -3.40237,12.54091 -1.26758,0.44717 -3.11303,1.36309 -4.101,2.03537 -2.37777,1.618 -6.28985,5.68872 -7.61958,7.92857 -0.86732,1.46096 -1.23447,1.78067 -1.96965,1.71519 -0.49699,-0.0443 -11.32787,-0.12355 -24.06863,-0.17619 z"
     style="opacity:0.25;fill:#000080;fill-opacity:1;stroke-width:0.361446" />
  <path
     id="path88"
     d="m 206.5471,172.15052 c -0.76575,-1.24061 -2.40122,-3.24982 -3.63438,-4.46491 l -2.24212,-2.20924 0.36362,-4.48517 c 0.62511,-7.71051 0.0347,-28.11324 -0.99014,-34.21409 l -0.19732,-1.1747 h 17.45874 17.45874 l 0.83077,2.96471 c 1.91088,6.81923 2.39445,11.01775 2.40613,20.89071 0.0115,9.76144 -0.362,13.48792 -2.1245,21.19366 l -0.81549,3.56538 -13.56089,0.0947 -13.56089,0.0947 z"
     style="opacity:0.25;fill:#000080;fill-opacity:1;stroke-width:0.361446" />
  <path
     id="path90"
     d="m 206.85682,172.32355 c -0.66601,-1.04133 -2.20401,-2.95494 -3.41779,-4.25247 l -2.20687,-2.35915 -0.0781,-15.2656 C 201.07946,135.87359 200.9218,131.74811 200.277,127.5 l -0.28803,-1.89759 h 17.28459 17.28458 l 0.54452,1.89759 c 1.21361,4.22929 2.00119,8.24856 2.35495,12.01807 0.47938,5.10807 0.47886,15.51152 -10e-4,20.57213 -0.32701,3.44844 -2.17164,13.3616 -2.55761,13.74476 -0.077,0.0764 -6.14547,0.19358 -13.48558,0.26041 l -13.34559,0.1215 z"
     style="opacity:0.25;fill:#000080;fill-opacity:1;stroke-width:0.361446" />
  <path
     id="path92"
     d="m 207.08119,172.37003 c -0.63048,-0.91636 -2.1878,-2.86027 -3.46073,-4.31979 l -2.3144,-2.65369 -1.6e-4,-13.11996 c -1.5e-4,-12.35878 -0.33504,-21.65308 -0.90576,-25.13804 l -0.25157,-1.53614 h 17.17274 17.17273 l 0.18819,0.81325 c 0.1035,0.44729 0.60894,2.60241 1.1232,4.78916 1.41619,6.02195 1.67242,8.92902 1.67474,19.00087 0.002,9.31215 -0.41076,13.39489 -2.17593,21.5152 l -0.40027,1.84138 -6.21705,0.23583 c -3.41937,0.12971 -9.42158,0.23633 -13.33823,0.23694 l -7.12119,0.001 z"
     style="opacity:0.25;fill:#000080;fill-opacity:1;stroke-width:0.361446" />
  <path
     id="path94"
     d="m 195.76863,103.10241 c -2.38285,-9.387528 -6.64325,-21.104163 -11.12393,-30.592167 -1.16302,-2.46274 -2.11458,-4.530755 -2.11458,-4.595589 0,-0.214081 3.37232,1.306619 7.40964,3.341274 14.53683,7.326007 27.62892,19.671419 36.64742,34.557322 l 0.82118,1.35542 h -15.3038 -15.30379 z"
     style="opacity:0.25;fill:#000080;fill-opacity:1;stroke-width:0.361446" />
  <path
     id="path96"
     d="m 196.76686,106.1747 c -0.41478,-1.75545 -3.31733,-11.805787 -3.67961,-12.740965 -0.19252,-0.496988 -0.38666,-1.066265 -0.43142,-1.26506 C 192.1173,89.776677 186.22008,75 185.80399,75 c -0.144,0 -0.26182,-0.212854 -0.26182,-0.473008 0,-0.260154 -0.5401,-1.644759 -1.20021,-3.076898 -0.66012,-1.432139 -1.09454,-2.709562 -0.96539,-2.838716 0.33087,-0.330862 8.44503,3.702371 12.52127,6.22383 10.71676,6.629116 20.50746,16.171297 28.10526,27.391862 1.63844,2.41969 2.98031,4.52142 2.98192,4.67052 0.001,0.1491 -6.74397,0.27108 -14.99018,0.27108 h -14.99312 z"
     style="opacity:0.25;fill:#000080;fill-opacity:1;stroke-width:0.361446" />
  <path
     id="path98"
     d="m 196.98795,106.68835 c 0,-0.62562 -2.99844,-11.107564 -4.30855,-15.061844 -1.18353,-3.572222 -4.59436,-12.246672 -6.12804,-15.584902 -1.86886,-4.067763 -2.98416,-6.897958 -2.79346,-7.088662 0.35565,-0.355652 10.54794,5.033433 14.49511,7.66417 9.74791,6.496843 18.71111,15.583263 26.03699,26.394938 l 2.44912,3.61446 -7.37559,0.22126 c -14.25535,0.42766 -22.37558,0.36981 -22.37558,-0.15942 z"
     style="opacity:0.25;fill:#000080;fill-opacity:1;stroke-width:0.361446" />
  <path
     id="path100"
     d="m 181.08434,232.80644 c 0,-0.0597 1.20517,-2.61311 2.67816,-5.67433 3.17146,-6.59105 4.83975,-10.5483 6.89579,-16.35707 l 1.51676,-4.28519 3.03898,-1.14497 c 5.15668,-1.94282 9.11414,-5.30477 11.74017,-9.9735 l 1.41929,-2.52332 9.50319,-0.008 9.50319,-0.008 -0.98453,1.71686 c -8.35907,14.57693 -23.18334,28.09037 -38.9857,35.53841 -4.00062,1.88559 -6.3253,2.88518 -6.3253,2.71984 z"
     style="opacity:0.25;fill:#000080;fill-opacity:1;stroke-width:0.361446" />
  <path
     id="path102"
     d="m 181.80723,231.91615 c 0,-0.16733 1.07556,-2.56451 2.39013,-5.32706 2.57267,-5.40644 5.42019,-12.16413 5.61947,-13.33608 0.0676,-0.39759 0.21333,-0.80421 0.32382,-0.90361 0.11048,-0.0994 0.64478,-1.41159 1.18732,-2.91599 l 0.98643,-2.73526 2.8763,-1.17602 c 5.4043,-2.20963 9.06379,-5.29859 11.8425,-9.99622 l 1.31946,-2.23064 4.31415,-0.23197 c 6.26355,-0.33679 14.32114,-0.2842 14.32114,0.0935 0,0.63557 -6.18353,9.57267 -8.74652,12.64141 -6.73491,8.06389 -18.33717,17.68497 -26.04263,21.59565 -0.94428,0.47924 -1.71687,1.05837 -1.71687,1.28695 0,0.22858 -0.0948,0.3208 -0.21066,0.20494 -0.21362,-0.21363 -6.30122,2.45321 -6.6486,2.9126 -0.28062,0.37112 -1.81544,0.47072 -1.81544,0.11782 z"
     style="opacity:0.25;fill:#000080;fill-opacity:1;stroke-width:0.361446" />
  <path
     id="path104"
     d="m 145.83572,238.40696 c -1.99216,-0.13751 -3.79789,-0.35865 -4.01272,-0.49143 -1.3185,-0.81487 -9.42974,-15.86369 -12.80594,-23.7589 -2.0675,-4.83484 -6.44873,-17.40771 -7.02183,-20.15061 l -0.24544,-1.17469 h 22.36633 22.36634 l 0.83096,1.71036 c 1.105,2.27443 2.6371,4.2588 4.84111,6.2702 l 1.81378,1.65526 -1.54956,4.12787 c -3.33397,8.88139 -8.16442,18.54802 -13.66728,27.35076 l -2.76789,4.42771 h -1.67628 c -0.92196,0 -2.39025,0.0638 -3.26288,0.14174 -0.87262,0.078 -3.21654,0.0292 -5.2087,-0.10827 z"
     style="opacity:0.25;fill:#000080;fill-opacity:1;stroke-width:0.361446" />
  <path
     id="path106"
     d="m 145.74668,238.26196 c -0.742,-0.16074 -1.8684,-0.23515 -2.50312,-0.16536 -1.05782,0.11633 -1.267,-0.0477 -2.50896,-1.96677 -0.74521,-1.15153 -1.51354,-2.09369 -1.70741,-2.09369 -0.19387,0 -0.25716,-0.0953 -0.14063,-0.21185 0.11652,-0.11653 -0.43644,-1.37707 -1.22881,-2.80121 -2.53554,-4.5572 -8.21269,-16.15742 -9.38726,-19.18116 -1.75259,-4.51175 -4.98236,-13.83278 -5.73815,-16.56012 l -0.67906,-2.45047 h 22.21364 22.21364 l 0.41171,0.90361 c 0.22645,0.49699 0.55786,0.90361 0.73648,0.90361 0.17862,0 0.2279,0.15672 0.10952,0.34827 -0.11838,0.19154 0.10244,0.66594 0.49071,1.05421 0.38828,0.38828 0.63305,0.77886 0.54395,0.86797 -0.0891,0.0891 0.95289,1.3632 2.31554,2.83132 2.42854,2.61651 3.19678,3.77443 2.65479,4.00139 -0.28968,0.1213 -3.8361,8.90237 -3.84135,9.5113 -0.002,0.1988 -0.0994,0.44277 -0.21705,0.54217 -0.11766,0.0994 -1.57159,2.9097 -3.23096,6.24512 -1.65937,3.33542 -4.65445,8.78421 -6.65574,12.10843 l -3.63872,6.04404 -4.43183,0.18072 c -2.43751,0.0994 -5.03892,0.0492 -5.78093,-0.11153 z"
     style="opacity:0.25;fill:#000080;fill-opacity:1;stroke-width:0.361446" />
  <path
     id="path108"
     d="m 111.50602,229.36387 c -9.65903,-4.76834 -16.029677,-9.35505 -23.870948,-17.18648 -5.551903,-5.54494 -9.608047,-10.61001 -13.092197,-16.34874 l -1.929485,-3.17805 14.894069,-0.0944 c 8.191737,-0.0519 14.950341,-0.0381 15.019121,0.0306 0.0688,0.0688 0.69754,2.22573 1.39724,4.79322 2.98834,10.96545 7.64717,23.43995 11.96879,32.04767 0.6737,1.34187 1.10088,2.43852 0.94928,2.437 -0.15159,-0.001 -2.55273,-1.1269 -5.33587,-2.50084 z"
     style="opacity:0.25;fill:#000080;fill-opacity:1;stroke-width:0.361446" />
  <path
     id="path110"
     d="m 111.22491,228.94255 c -8.29122,-4.16457 -12.960656,-7.3295 -19.779127,-13.40627 -6.899709,-6.14916 -12.794808,-13.27017 -17.674123,-21.34953 l -0.81857,-1.35542 h 14.76538 14.76538 l 0.85593,3.16265 c 1.09281,4.03795 5.05228,16.30857 5.56913,17.25903 0.2162,0.39759 0.43539,0.97282 0.48709,1.27829 0.15846,0.93633 3.34306,8.62629 5.22445,12.61567 0.97876,2.07541 1.73565,3.89125 1.68197,4.03519 -0.0537,0.14395 -2.33856,-0.86388 -5.07751,-2.23961 z"
     style="opacity:0.25;fill:#000080;fill-opacity:1;stroke-width:0.361446" />
  <path
     id="path112"
     d="m 112.02329,229.12532 c -12.143306,-5.91028 -22.698574,-14.44046 -31.270277,-25.27091 -2.584667,-3.26576 -7.379519,-10.29199 -7.379519,-10.81372 0,-0.11515 6.499137,-0.20936 14.442526,-0.20936 h 14.44253 l 0.73736,2.62048 c 0.40554,1.44126 2.13245,6.84939 3.83756,12.01807 2.61886,7.93848 4.26335,12.13199 8.68165,22.13855 0.28527,0.64609 0.3827,1.1747 0.21651,1.1747 -0.16619,0 -1.83495,-0.74601 -3.70834,-1.65781 z"
     style="opacity:0.25;fill:#000080;fill-opacity:1;stroke-width:0.361446" />
  <path
     id="path114"
     d="m 142.59036,256.21766 c -19.03379,-1.58462 -36.15432,-7.38447 -51.255711,-17.36369 -26.576002,-17.5618 -43.437104,-45.17647 -47.080366,-77.10698 -0.825305,-7.2332 -0.560597,-20.82976 0.544703,-27.97836 6.771852,-43.797343 40.071162,-79.021728 83.070594,-87.873009 8.23206,-1.69454 12.70069,-2.123278 22.13042,-2.123278 9.42973,0 13.89836,0.428738 22.13042,2.123278 39.18857,8.066828 70.96598,38.447937 80.8866,77.332429 2.54439,9.97289 3.04473,14.37235 3.04473,26.77195 0,9.41656 -0.10504,11.50922 -0.79832,15.90361 -3.6475,23.12 -13.84266,43.27303 -30.07896,59.45784 -16.79725,16.74396 -37.54646,26.93407 -61.44953,30.17836 -4.04328,0.54878 -17.50955,0.98048 -21.14458,0.67785 z m 16.67997,-22.28311 c 5.35359,-8.68552 9.62998,-17.16297 12.9566,-25.68496 2.40809,-6.16894 2.39659,-5.81217 0.24782,-7.69187 -1.85926,-1.62643 -5.4868,-6.63519 -5.4868,-7.57595 0,-0.43615 -3.37529,-0.51189 -22.81131,-0.51189 h -22.81131 l 0.25004,1.33285 c 0.51456,2.74283 3.21969,10.97443 5.50105,16.73944 2.79239,7.05642 7.27616,16.14232 11.30681,22.91216 3.38617,5.68736 2.1753,5.14225 11.57677,5.21153 l 6.3253,0.0466 z m 30.52869,-4.63337 c 15.43611,-7.82233 28.89754,-20.48972 37.31551,-35.11443 l 0.98823,-1.71687 -10.04536,0.001 -10.04535,0.001 -1.24485,2.40728 c -1.88819,3.65138 -5.65247,7.27168 -9.44407,9.08283 -1.67531,0.80025 -3.55094,1.55851 -4.16806,1.68501 -1.05826,0.21693 -1.20918,0.47049 -2.65458,4.45984 -2.26631,6.2551 -4.80653,12.18993 -7.62933,17.82479 -1.38034,2.75521 -2.50971,5.16308 -2.50971,5.3506 0,0.48491 3.72128,-1.08519 9.43757,-3.98194 z m -71.96769,3.16226 c 0,-0.0698 -1.1993,-2.63156 -2.66511,-5.69277 -4.28627,-8.9515 -8.65662,-20.8434 -10.87894,-29.602 -0.32786,-1.29216 -0.75518,-2.95933 -0.9496,-3.70481 l -0.3535,-1.35543 H 87.421601 71.85902 l 0.984307,1.71687 c 9.262253,16.1556 23.590863,29.18952 40.650653,36.97758 3.66868,1.67481 4.33735,1.93081 4.33735,1.66056 z M 99.637178,172.13855 c -0.125364,-1.44126 -0.411658,-4.40963 -0.636209,-6.59638 -0.568974,-5.54087 -0.573889,-20.98828 -0.0087,-27.39512 l 0.471672,-5.34692 -1.669507,-1.46956 c -0.918231,-0.80826 -2.41264,-2.51097 -3.320913,-3.7838 l -1.651403,-2.31423 -13.97129,0.0946 -13.971299,0.0946 -0.806946,3.07229 c -2.001735,7.62121 -2.43234,11.46977 -2.426475,21.68674 0.0043,7.47722 0.144041,10.37118 0.637074,13.19277 0.719823,4.1195 1.820802,8.927 2.379797,10.39157 l 0.379381,0.99398 H 82.453731 99.86511 Z m 68.592962,0.5874 c 2.1879,-4.18706 7.48793,-8.38234 12.5445,-9.9297 l 2.40115,-0.73477 0.27515,-7.11508 c 0.28218,-7.2966 -0.16315,-19.03457 -0.98928,-26.07589 l -0.42585,-3.62955 h -24.99318 -24.99317 l -1.14263,1.76337 c -2.52936,3.90347 -8.9733,8.5489 -12.87366,9.28061 -0.92946,0.17438 -1.26786,0.45344 -1.44101,1.18834 -0.49246,2.09027 -0.66359,19.21276 -0.24311,24.32597 0.44331,5.39092 1.0266,10.74271 1.32385,12.14653 l 0.1722,0.81326 24.66179,-7.3e-4 24.66178,-7.2e-4 1.06147,-2.03137 z m 67.40817,0.67766 c 0.58046,-2.15565 1.7111,-7.93578 2.24478,-11.4759 0.65763,-4.36229 0.65951,-19.83536 0.003,-24.21687 -0.52907,-3.53069 -1.93948,-9.8814 -2.54864,-11.4759 l -0.37974,-0.99398 h -17.7537 -17.75371 l 0.23307,1.71687 c 0.75589,5.56816 0.96373,8.94942 1.14979,18.70482 0.12142,6.36605 0.0511,12.74001 -0.17035,15.43673 l -0.37716,4.59336 2.45417,2.45483 c 1.34979,1.35016 2.98178,3.39008 3.62665,4.53315 l 1.17248,2.07832 h 13.86723 13.86722 l 0.36498,-1.35543 z m -57.80698,-66.38423 c 0,-0.81368 -2.69784,-9.56026 -4.28292,-13.885497 -3.212,-8.764677 -7.86036,-18.462291 -12.86981,-26.849553 l -2.72298,-4.559043 -1.67886,-0.230113 c -2.13623,-0.292803 -10.00884,-0.292338 -11.78151,6.86e-4 -1.22561,0.202601 -1.54117,0.522513 -3.47217,3.520119 -5.03887,7.822124 -10.77917,18.955485 -14.13798,27.420733 l -1.54049,3.882506 2.5635,2.744975 c 1.7599,1.884477 2.99002,3.634817 3.92409,5.583557 l 1.36057,2.83859 22.31928,0.0219 c 18.99824,0.0186 22.31928,-0.0541 22.31928,-0.48885 z m 49.48135,-0.84468 c -8.06924,-13.361358 -18.96819,-24.525771 -31.22834,-31.988961 -5.3544,-3.259412 -13.62237,-7.189877 -14.10632,-6.705926 -0.096,0.096 0.94395,2.518575 2.311,5.383507 4.54943,9.534261 8.20165,19.448364 10.77351,29.24511 0.70453,2.68374 1.35425,5.00151 1.44381,5.15061 0.0896,0.14909 7.2418,0.27108 15.89387,0.27108 h 15.73104 z M 92.420064,104.72176 c 1.326188,-2.79314 3.474697,-5.50233 6.073912,-7.658976 2.025574,-1.680676 6.199474,-3.81587 8.156564,-4.172562 l 1.2891,-0.234944 2.60144,-6.568605 c 1.4308,-3.61273 3.98443,-9.398732 5.67474,-12.857782 1.69031,-3.459049 3.01664,-6.345827 2.94741,-6.415063 -0.23002,-0.230016 -4.70648,1.722781 -9.28371,4.049901 -8.83254,4.490562 -16.404204,10.07253 -23.328222,17.197975 -5.57429,5.736451 -9.765767,11.200684 -13.339518,17.390106 l -0.991314,1.71686 9.522298,-0.007 9.522296,-0.007 1.155004,-2.4326 z"
     style="opacity:0.25;fill:#cccccc;fill-opacity:1;stroke-width:0.361446" />
  <path
     id="path116"
     d="m 118.40476,173.44512 c -0.72569,-1.89112 -1.43856,-33.11617 -0.80062,-35.06868 0.16313,-0.49927 1.32362,-1.33277 3.22298,-2.31485 5.30434,-2.74266 8.31047,-5.13684 10.97682,-8.74231 l 1.26968,-1.71687 h 24.0167 c 18.89074,0 24.04938,0.0964 24.16981,0.45181 0.76816,2.26675 1.65065,31.53927 1.02153,33.88441 -0.3586,1.3367 -0.34846,1.32956 -4.81178,3.39114 -3.22927,1.49159 -6.35173,4.20424 -9.20835,7.99979 l -2.03703,2.70658 h -23.79647 c -21.69328,0 -23.81652,-0.0522 -24.02327,-0.59102 z"
     style="opacity:0.25;fill:#000080;fill-opacity:1;stroke-width:0.361446" />
  <path
     id="path118"
     d="m 123.38652,173.7663 -4.74602,-0.11198 -0.21534,-1.07674 c -0.37665,-1.88321 -1.0211,-22.34845 -0.89546,-28.43627 0.1391,-6.74065 -0.36926,-5.82119 4.85371,-8.7789 4.1299,-2.33872 7.09565,-4.79417 9.18286,-7.60283 l 1.6265,-2.18871 23.77761,0.1488 c 13.07768,0.0818 23.87429,0.24548 23.99246,0.36366 0.51067,0.51066 0.85655,6.74505 1.07784,19.4279 0.13036,7.47093 0.12804,14.0177 -0.005,14.54837 -0.19585,0.78034 -0.93304,1.31156 -3.85473,2.77774 -3.98767,2.0011 -7.54444,5.05657 -10.46995,8.99428 l -1.62651,2.18926 -18.9759,-0.0713 c -10.43675,-0.0392 -21.11161,-0.12169 -23.72192,-0.18328 z"
     style="opacity:0.25;fill:#000080;fill-opacity:1;stroke-width:0.361446" />
  <path
     id="path120"
     d="m 139.8946,173.76509 c -11.42243,-0.053 -20.90043,-0.22876 -21.06223,-0.39055 -0.88352,-0.88352 -1.44936,-33.69058 -0.60441,-35.04356 0.24076,-0.38552 2.04259,-1.63294 4.00405,-2.77203 4.46551,-2.59328 7.07329,-4.70612 9.32087,-7.55184 l 1.75653,-2.22398 22.35132,0.10735 c 12.29323,0.059 23.0237,0.19667 23.84551,0.30584 1.49096,0.19805 1.49473,0.2025 1.74477,2.06132 0.34655,2.57629 0.82506,27.76113 0.57723,30.38017 l -0.20173,2.13179 -3.32108,1.84412 c -4.35269,2.41695 -7.1903,4.78818 -10.10056,8.4405 l -2.37609,2.98192 -2.58306,-0.0873 c -1.42069,-0.048 -11.92869,-0.13071 -23.35112,-0.18371 z"
     style="opacity:0.25;fill:#000080;fill-opacity:1;stroke-width:0.361446" />
  <path
     id="path122"
     d="m 142.14242,173.67464 c -12.57167,-0.12824 -22.96616,-0.34175 -23.09887,-0.47446 -0.52752,-0.52753 -0.89455,-8.66854 -0.96132,-21.32277 l -0.0702,-13.30332 0.90361,-0.70321 c 0.49699,-0.38677 2.1235,-1.42738 3.61446,-2.31247 3.72102,-2.20893 6.66288,-4.65453 8.83307,-7.34303 l 1.82958,-2.26654 23.43875,0.14591 c 19.2109,0.11959 23.523,0.23504 23.90585,0.64004 0.65694,0.69495 0.85267,4.0404 1.11792,19.10858 0.15274,8.6763 0.10588,13.51186 -0.13687,14.12484 -0.24892,0.62856 -1.37529,1.49677 -3.45918,2.66636 -4.0501,2.27311 -7.0997,4.85153 -9.98695,8.44386 -1.29217,1.60774 -2.51205,2.90205 -2.71084,2.87627 -0.1988,-0.0258 -10.64736,-0.15181 -23.21903,-0.28006 z"
     style="opacity:0.25;fill:#000080;fill-opacity:1;stroke-width:0.361446" />
  <path
     id="path124"
     d="m 128.61376,173.32526 c -5.1028,-0.106 -9.40085,-0.31608 -9.55122,-0.46684 -0.46312,-0.46431 -0.76056,-9.63283 -0.72397,-22.31625 l 0.0349,-12.10844 4.6988,-3.12231 c 3.44382,-2.28839 5.47109,-3.95063 7.59036,-6.2236 l 2.89157,-3.10129 23.21034,0.26528 c 16.75494,0.19149 23.32648,0.3814 23.62788,0.6828 0.22965,0.22965 0.55278,2.34162 0.71808,4.69327 0.36629,5.21107 0.51931,28.08311 0.19144,28.61363 -0.12947,0.20947 -1.49194,1.15453 -3.02771,2.10012 -4.48853,2.76364 -6.83835,4.71424 -9.7852,8.12274 l -2.76616,3.19951 -13.91566,-0.073 c -7.65362,-0.0401 -18.09068,-0.15967 -23.19347,-0.26567 z"
     style="opacity:0.25;fill:#000080;fill-opacity:1;stroke-width:0.361446" />
  <path
     id="path126"
     d="m 135.79963,173.30925 c -11.91829,-0.17677 -16.3039,-0.35561 -16.62651,-0.67799 -0.32731,-0.32708 -0.46806,-4.71391 -0.55626,-17.33762 l -0.11807,-16.89974 4.09398,-2.67756 c 2.66333,-1.74188 5.2939,-3.87279 7.52771,-6.09786 l 3.43374,-3.42031 15.90361,0.10607 c 18.35724,0.12244 30.36604,0.44691 30.74972,0.83085 0.1471,0.14719 0.39579,1.04177 0.55266,1.98795 0.3846,2.31977 0.86443,28.5002 0.55156,30.09403 -0.22245,1.1332 -0.68563,1.54702 -4.45004,3.9757 -3.34594,2.15871 -4.94184,3.50224 -7.83542,6.59639 l -3.63367,3.88554 -6.70234,-0.0627 c -3.68629,-0.0345 -13.98709,-0.17072 -22.89067,-0.30278 z"
     style="opacity:0.25;fill:#000080;fill-opacity:1;stroke-width:0.361446" />
  <path
     id="path128"
     d="m 140.78313,173.31134 c -14.38737,-0.16797 -20.46983,-0.35895 -21.03235,-0.66038 -0.73271,-0.39263 -0.80092,-0.73888 -0.91995,-4.67005 -0.0707,-2.33528 -0.15957,-9.93874 -0.19746,-16.89657 l -0.0689,-12.65061 3.85063,-2.53012 c 2.18451,-1.43537 5.47236,-4.08038 7.59871,-6.11301 l 3.74808,-3.58289 21.04075,0.24696 c 17.96835,0.2109 25.06526,0.42067 25.46295,0.75264 0.7669,0.64017 1.5422,29.99823 0.84777,32.10238 -0.33058,1.00167 -1.18291,1.75595 -4.55169,4.02811 -3.05336,2.05942 -5.07395,3.78749 -7.67258,6.56181 l -3.52763,3.76614 -2.16868,-0.0591 C 162,173.57421 151.91566,173.44131 140.78313,173.31134 Z"
     style="opacity:0.25;fill:#000080;fill-opacity:1;stroke-width:0.361446" />
  <path
     id="path130"
     d="m 133.53082,105.99398 c -0.37834,-1.21696 -3.03639,-5.21449 -5.16466,-7.767311 l -1.8802,-2.255258 1.29618,-3.166429 c 2.4099,-5.887093 10.24408,-21.209206 13.26183,-25.937512 l 2.99891,-4.698795 5.93106,-0.09961 5.93106,-0.09961 1.04565,1.001797 c 3.12147,2.990557 9.25885,14.7581 14.37965,27.570911 2.63625,6.596182 5.55338,15.164507 5.26202,15.455867 -0.38238,0.38238 -14.28912,0.76146 -28.827,0.78579 l -13.98167,0.0234 z"
     style="opacity:0.25;fill:#000080;fill-opacity:1;stroke-width:0.361446" />
  <path
     id="path132"
     d="m 133.28024,105.25894 c -0.34948,-0.85007 -1.95625,-3.30472 -3.57058,-5.45477 l -2.93517,-3.909189 0.48829,-1.501707 c 0.87774,-2.69946 10.6627,-21.985494 13.71102,-27.024243 l 2.97655,-4.920126 5.82603,-0.195396 5.82603,-0.195397 1.19758,1.139619 c 3.22946,3.07317 8.96449,13.990416 14.19855,27.028452 2.64258,6.582673 5.63112,15.373077 5.32915,15.675047 -0.21902,0.21901 -27.59567,0.86985 -37.53251,0.89228 l -4.87952,0.011 -0.63542,-1.54558 z"
     style="opacity:0.25;fill:#000080;fill-opacity:1;stroke-width:0.361446" />
  <path
     id="path134"
     d="m 133.34717,105.12635 c -0.43808,-0.90497 -2.06143,-3.35208 -3.60742,-5.438031 -2.67145,-3.604475 -2.79221,-3.84923 -2.43398,-4.933251 1.09049,-3.299828 10.77867,-22.304266 14.7002,-28.836067 2.1953,-3.656544 1.94668,-3.559369 9.1227,-3.565625 l 4.5624,-0.004 1.43864,1.56074 c 2.96007,3.211302 7.42096,11.41903 11.74582,21.611491 3.74784,8.83258 7.51803,19.590833 7.03486,20.074003 -0.26929,0.2693 -13.23853,0.68735 -30.49517,0.98301 l -11.27152,0.19311 z"
     style="opacity:0.25;fill:#000080;fill-opacity:1;stroke-width:0.361446" />
  <path
     id="path136"
     d="m 133.08965,104.54819 c -0.59166,-1.04367 -2.01161,-3.19853 -3.15544,-4.788568 -3.00483,-4.176975 -2.94825,-3.885525 -1.44035,-7.419415 2.11299,-4.951997 11.48439,-22.961397 14.12442,-27.14347 1.48619,-2.35428 2.1042,-2.571515 7.87278,-2.767352 l 5.15424,-0.174981 1.82138,2.306533 c 4.51702,5.720195 10.44839,17.869304 15.50907,31.766905 2.24949,6.177528 2.9085,8.595138 2.46406,9.039578 -0.36149,0.36149 -22.88917,1.07545 -33.98964,1.07721 l -7.28478,10e-4 z"
     style="opacity:0.25;fill:#000080;fill-opacity:1;stroke-width:0.361446" />
  <path
     id="path138"
     d="m 134.09639,106.12084 c 0,-0.17872 -1.48205,-2.53666 -3.29344,-5.23988 -2.97059,-4.433125 -3.27103,-5.034437 -3.06477,-6.133887 0.38751,-2.065609 10.63199,-22.309916 14.42712,-28.509695 0.94536,-1.544368 1.89243,-2.623761 2.58502,-2.946211 0.64568,-0.300606 3.04695,-0.613001 5.86692,-0.763259 l 4.77387,-0.25437 0.92488,1.031906 c 1.61214,1.7987 4.71717,6.672546 6.98983,10.971664 4.17271,7.893388 11.35764,25.714641 11.86777,29.436372 l 0.21318,1.55534 -3.02471,0.23843 c -3.08736,0.24338 -28.36324,0.92188 -34.74158,0.93261 -1.93825,0.003 -3.52409,-0.1403 -3.52409,-0.31902 z"
     style="opacity:0.25;fill:#000080;fill-opacity:1;stroke-width:0.361446" />
  <path
     id="path140"
     d="m 73.861292,106.27641 c 0.392666,-1.02327 5.24176,-8.034454 7.5164,-10.867775 5.009698,-6.240144 13.232071,-13.805454 19.816028,-18.232494 3.36702,-2.26398 14.37324,-8.320719 15.1203,-8.320719 0.23813,0 0.43297,0.145296 0.43297,0.32288 0,0.177584 -1.75975,4.447162 -3.91055,9.487951 -2.1508,5.04079 -4.23113,9.964719 -4.62295,10.942065 -0.39182,0.977346 -0.94984,1.903424 -1.24005,2.057951 -0.29021,0.154528 -2.07284,0.996017 -3.96139,1.869977 -5.097414,2.358911 -8.232888,5.338524 -10.922354,10.379414 l -1.253474,2.3494 -2.134979,0.23186 c -1.174238,0.12751 -5.039428,0.2495 -8.589311,0.27108 -5.537998,0.0336 -6.425415,-0.0361 -6.25064,-0.49159 z"
     style="opacity:0.25;fill:#000080;fill-opacity:1;stroke-width:0.361446" />
  <path
     id="path142"
     d="m 74.096386,106.24045 c 0,-0.53527 6.046951,-9.03232 8.599497,-12.083823 4.964301,-5.934698 12.826675,-12.997152 18.941247,-17.01416 3.46859,-2.278709 13.6822,-7.9256 14.33515,-7.9256 0.22729,0 0.41326,0.140012 0.41326,0.311136 0,0.316101 -4.98126,12.289647 -7.65546,18.401565 l -1.4663,3.351254 -4.36674,2.226294 c -5.18273,2.642317 -7.796988,5.033815 -10.454687,9.563854 -1.437602,2.45038 -1.896987,2.95851 -2.846385,3.14839 -1.41248,0.2825 -15.499582,0.30167 -15.499582,0.0211 z"
     style="opacity:0.25;fill:#000080;fill-opacity:1;stroke-width:0.361446" />
  <path
     id="path144"
     d="m 76.174699,106.20316 c -0.944277,-0.0871 -1.716868,-0.25017 -1.716868,-0.36229 0,-0.27549 3.596895,-5.41413 6.281114,-8.9734 1.199369,-1.590362 3.97707,-4.74068 6.17267,-7.000707 7.297876,-7.512024 13.517925,-12.207847 23.180055,-17.499762 5.0157,-2.747088 5.93243,-3.124784 5.93243,-2.444198 0,0.18947 -1.55668,4.052421 -3.45929,8.584338 -1.9026,4.531916 -3.87433,9.234628 -4.38162,10.450471 -0.89038,2.134055 -1.01095,2.252988 -3.48097,3.433735 -3.65325,1.74637 -7.419873,4.282272 -9.110811,6.133907 -0.801232,0.877375 -2.236895,2.848766 -3.190364,4.380876 -0.953468,1.5321 -2.005746,2.86547 -2.338396,2.96304 -0.87536,0.25677 -11.861704,0.52097 -13.88795,0.33399 z"
     style="opacity:0.25;fill:#000080;fill-opacity:1;stroke-width:0.361446" />
  <path
     id="path146"
     d="m 74.819277,105.74019 c 0,-0.45401 3.939071,-6.088676 6.7498,-9.655282 3.23153,-4.100571 11.966248,-12.526756 16.470808,-15.889017 5.632255,-4.203985 16.882435,-10.747746 17.472465,-10.162999 0.29416,0.291531 0.0164,1.017009 -4.80852,12.557469 -1.70382,4.075302 -3.3589,7.712062 -3.67795,8.081691 -0.31905,0.369628 -1.5247,1.149286 -2.67921,1.732573 -2.99586,1.513571 -6.733897,3.992311 -8.162856,5.412887 -0.674203,0.670248 -2.271343,2.702588 -3.549201,4.516318 -2.244698,3.18601 -2.379316,3.30535 -3.975226,3.5241 -2.651389,0.36341 -13.84011,0.26823 -13.84011,-0.11774 z"
     style="opacity:0.25;fill:#000080;fill-opacity:1;stroke-width:0.361446" />
  <path
     id="path148"
     d="m 64.599945,170.20777 c -1.387885,-5.69543 -1.815695,-10.64858 -1.85464,-21.47283 l -0.03446,-9.57831 1.316405,-6.25617 c 0.724022,-3.44089 1.428641,-6.3686 1.565821,-6.50602 0.137179,-0.13742 6.132147,-0.29288 13.32215,-0.34546 l 13.072733,-0.0956 3.258508,3.85112 3.258507,3.85111 -0.250865,2.75051 c -0.328288,3.59942 -0.310858,20.33635 0.03072,29.49749 0.148244,3.97591 0.171734,7.34566 0.0522,7.48835 -0.119533,0.14269 -7.543104,0.37173 -16.49682,0.50898 l -16.279485,0.24954 z"
     style="opacity:0.25;fill:#000080;fill-opacity:1;stroke-width:0.361446" />
  <path
     id="path150"
     d="m 65.681788,173.78771 c -0.352269,-0.60158 -1.685113,-6.91072 -2.123708,-10.05277 -0.282468,-2.02357 -0.460076,-7.55607 -0.469938,-14.63855 l -0.01585,-11.38555 1.22537,-5.51788 c 1.071176,-4.82353 1.32133,-5.53721 1.987952,-5.67152 0.41942,-0.0845 6.33921,-0.22936 13.155089,-0.32189 l 12.392507,-0.16824 3.077393,3.67109 3.077392,3.67109 0.07815,19.93738 0.07815,19.93738 -4.704681,0.20415 c -9.267059,0.40213 -27.589099,0.62346 -27.757833,0.33531 z"
     style="opacity:0.25;fill:#000080;fill-opacity:1;stroke-width:0.361446" />
  <path
     id="path152"
     d="m 65.688192,173.45205 c -0.114813,-0.18577 -0.654078,-2.52944 -1.198367,-5.20816 -0.941231,-4.63227 -0.997511,-5.49416 -1.151092,-17.62818 l -0.161476,-12.75778 1.167547,-5.1858 c 0.64215,-2.85219 1.29911,-5.39868 1.45991,-5.65886 0.229613,-0.37152 3.07088,-0.5008 13.237801,-0.60235 l 12.945437,-0.12929 2.981928,3.62479 2.981927,3.62479 v 19.68897 c 0,12.26135 -0.131595,19.77029 -0.348829,19.90455 -0.605778,0.37439 -31.688672,0.69318 -31.914786,0.32732 z"
     style="opacity:0.25;fill:#000080;fill-opacity:1;stroke-width:0.361446" />
  <path
     id="path154"
     d="m 65.640443,172.70159 c -1.297892,-4.14386 -1.6986,-7.98838 -2.064765,-19.81002 -0.209355,-6.75904 -0.305083,-13.18374 -0.212729,-14.27711 0.09235,-1.09338 0.687508,-4.13503 1.322566,-6.75924 l 1.15465,-4.77129 1.507629,-0.18193 c 0.829195,-0.10006 6.712447,-0.2613 13.073893,-0.35831 l 11.566265,-0.17637 1.807229,2.22893 c 0.993976,1.22592 2.360313,2.94659 3.036306,3.82371 l 1.229077,1.59477 -0.19799,19.31094 c -0.108894,10.62103 -0.309397,19.42253 -0.445562,19.5589 -0.136165,0.13638 -7.29555,0.29801 -15.909746,0.35919 -14.844923,0.10542 -15.672852,0.0771 -15.866823,-0.54217 z"
     style="opacity:0.25;fill:#000080;fill-opacity:1;stroke-width:0.361446" />
  <path
     id="path156"
     d="m 110.40435,228.08441 c -14.023563,-7.25905 -25.224256,-17.47249 -34.828189,-31.75838 -1.046605,-1.55683 -1.825901,-2.90762 -1.731769,-3.00175 0.09413,-0.0941 6.492051,-0.26754 14.217596,-0.38536 l 14.046442,-0.21421 0.6985,2.49307 c 2.4474,8.73527 7.8934,23.95558 11.2384,31.40873 1.48064,3.29908 1.64232,3.79518 1.23688,3.79518 -0.1994,0 -2.39444,-1.05178 -4.87786,-2.33728 z"
     style="opacity:0.25;fill:#000080;fill-opacity:1;stroke-width:0.361446" />
  <path
     id="path158"
     d="m 109.87693,227.59916 c -5.58156,-3.04212 -7.90156,-4.51397 -12.286569,-7.79482 -7.644128,-5.7193 -17.848131,-16.89201 -22.705889,-24.86143 l -0.805913,-1.32214 1.364335,-0.19439 c 0.750384,-0.10691 7.030294,-0.24387 13.955356,-0.30436 l 12.59102,-0.10997 1.70249,5.60241 c 2.15847,7.10286 5.32544,16.04539 8.06434,22.77108 1.17385,2.88253 2.44933,6.01356 2.83441,6.95783 0.50296,1.23334 0.57366,1.71687 0.25103,1.71687 -0.24702,0 -2.48109,-1.10748 -4.96461,-2.46108 z"
     style="opacity:0.25;fill:#000080;fill-opacity:1;stroke-width:0.361446" />
  <path
     id="path160"
     d="m 110.59063,227.83674 c -5.26007,-2.77521 -11.458875,-6.87371 -15.473923,-10.23096 -3.842775,-3.2132 -10.95822,-10.52324 -14.26388,-14.65397 -3.159703,-3.94834 -6.583277,-8.96835 -6.305637,-9.24599 0.11865,-0.11865 6.308927,-0.30739 13.756172,-0.41942 l 13.540448,-0.20369 1.50143,4.84419 c 2.36109,7.61779 5.25557,15.75758 8.57937,24.12673 1.68549,4.24395 3.00745,7.77334 2.93769,7.8431 -0.0697,0.0698 -1.99201,-0.85724 -4.27167,-2.05999 z"
     style="opacity:0.25;fill:#000080;fill-opacity:1;stroke-width:0.361446" />
  <path
     id="path162"
     d="m 110.5909,227.66199 c -4.4485,-2.35092 -10.843177,-6.53173 -14.535296,-9.50311 -3.493049,-2.81116 -12.873722,-12.45962 -15.841538,-16.29375 -2.400064,-3.10066 -5.394789,-7.39309 -5.394789,-7.73253 0,-0.40372 2.860777,-0.55249 14.638554,-0.76126 l 12.289159,-0.21783 1.74454,5.53168 c 2.35857,7.47865 4.06547,12.3042 7.88579,22.29374 1.7771,4.64684 3.17848,8.50142 3.11417,8.56572 -0.0643,0.0643 -1.81956,-0.78289 -3.90059,-1.88266 z"
     style="opacity:0.25;fill:#000080;fill-opacity:1;stroke-width:0.361446" />
  <path
     id="path164"
     d="m 144.59629,238.06181 c -2.31085,-0.22845 -2.34494,-0.24803 -3.86187,-2.21844 -1.73879,-2.25859 -10.57543,-19.74595 -12.60245,-24.93976 -1.59582,-4.08893 -5.39896,-15.24136 -5.76345,-16.9009 l -0.25728,-1.17138 h 22.00059 22.0006 l 1.07029,2.05872 c 0.58866,1.13229 2.25393,3.44323 3.70059,5.13542 1.44667,1.69219 2.55441,3.24618 2.46166,3.45333 -0.0927,0.20714 -1.07468,2.63846 -2.18205,5.40293 -2.88129,7.19293 -6.79786,14.84334 -12.78511,24.97369 -1.29241,2.18675 -2.36426,4.00219 -2.3819,4.03431 -0.11903,0.21688 -9.51223,0.35867 -11.39962,0.17208 z"
     style="opacity:0.25;fill:#000080;fill-opacity:1;stroke-width:0.361446" />
  <path
     id="path166"
     d="m 143.136,237.68946 c -0.49508,-0.1378 -1.51231,-1.05682 -2.26051,-2.04229 -1.59717,-2.10367 -10.82103,-20.28587 -12.55244,-24.74356 -1.21187,-3.12007 -4.67462,-13.22404 -5.6052,-16.35542 l -0.51021,-1.71686 h 21.82146 21.82146 l 1.17297,2.05013 c 0.64513,1.12757 1.84157,2.87606 2.65877,3.88554 0.81718,1.00947 1.94617,2.44414 2.50886,3.18814 l 1.02306,1.35272 -1.54013,3.88824 c -3.89322,9.82887 -14.78887,30.17075 -16.3905,30.60062 -1.06717,0.28642 -11.04981,0.19828 -12.14759,-0.10726 z"
     style="opacity:0.25;fill:#000080;fill-opacity:1;stroke-width:0.361446" />
  <path
     id="path168"
     d="m 141.72114,236.26825 c -1.36222,-1.44913 -7.45778,-12.82833 -11.16698,-20.84656 -2.44447,-5.28422 -8.02404,-20.84278 -8.02404,-22.37491 0,-0.1185 9.71837,-0.21529 21.59639,-0.21509 l 21.59638,3.7e-4 0.97626,1.73825 c 0.53694,0.95603 2.18784,3.32946 3.66866,5.27429 l 2.69242,3.53605 -1.49866,3.67112 c -3.17487,7.77719 -12.0828,25.00249 -15.02954,29.06269 l -1.11488,1.53614 h -6.19827 -6.19828 z"
     style="opacity:0.25;fill:#000080;fill-opacity:1;stroke-width:0.361446" />
  <path
     id="path170"
     d="m 142.11131,236.40221 c -1.50886,-1.7185 -3.40256,-5.03712 -7.78051,-13.63499 -3.89504,-7.64947 -6.9642,-15.05339 -9.98336,-24.08347 l -1.77546,-5.31026 7.11762,-0.22212 c 3.9147,-0.12217 13.59056,-0.24416 21.50191,-0.27109 l 14.38428,-0.0489 0.61572,1.13311 c 0.33865,0.62321 1.98312,2.99745 3.65439,5.27608 l 3.03867,4.14295 -1.18266,2.94682 c -2.82344,7.03509 -10.72941,22.51985 -14.56084,28.51911 l -1.78899,2.8012 h -6.07233 -6.07233 z"
     style="opacity:0.25;fill:#000080;fill-opacity:1;stroke-width:0.361446" />
  <path
     id="path172"
     d="m 182.16867,231.6406 c 0,-0.12478 1.24043,-2.9305 2.75651,-6.23494 2.59983,-5.66657 5.05261,-11.66791 6.71391,-16.4273 0.40431,-1.15828 1.00062,-2.19801 1.32512,-2.3105 0.3245,-0.11248 2.09942,-0.91841 3.94427,-1.79094 4.00477,-1.89409 7.78355,-5.25929 10.00043,-8.90591 1.25477,-2.06402 1.58776,-2.373 2.75931,-2.56034 1.63641,-0.26167 16.61013,-0.32509 16.8638,-0.0714 0.22437,0.22437 -2.95227,5.02304 -6.30849,9.52967 -4.23564,5.68749 -11.88947,13.11042 -19.13612,18.55882 -3.42286,2.57348 -9.47505,6.40571 -11.68982,7.40198 -0.69578,0.31298 -2.43157,1.12451 -3.8573,1.8034 -2.5451,1.2119 -3.37162,1.45887 -3.37162,1.00748 z"
     style="opacity:0.25;fill:#000080;fill-opacity:1;stroke-width:0.361446" />
  <path
     id="path174"
     d="m 182.53012,231.32035 c 0,-0.10212 1.07575,-2.58254 2.39057,-5.51204 1.31481,-2.92951 3.35358,-7.76614 4.5306,-10.74807 3.46374,-8.7752 2.84114,-7.86002 6.58455,-9.67892 1.81583,-0.88231 4.27741,-2.34718 5.47018,-3.25527 2.01726,-1.5358 2.88828,-2.50934 6.05221,-6.7646 l 1.20936,-1.62651 3.41741,-0.23063 c 4.46982,-0.30165 12.22661,-0.30332 13.29479,-0.003 0.81813,0.23013 0.77678,0.33301 -1.50645,3.74801 -4.4189,6.60929 -8.46515,11.33875 -14.30012,16.7147 -7.29943,6.7252 -14.19292,11.58927 -21.56631,15.21727 -4.3805,2.15537 -5.57679,2.6142 -5.57679,2.13892 z"
     style="opacity:0.25;fill:#000080;fill-opacity:1;stroke-width:0.361446" />
  <path
     id="path176"
     d="m 182.89157,231.00137 c 0,-0.0788 1.11529,-2.72183 2.47843,-5.87349 1.36314,-3.15166 3.42544,-8.08872 4.58289,-10.97125 1.15744,-2.88253 2.40568,-5.67987 2.77386,-6.2163 0.36818,-0.53644 2.13738,-1.74933 3.93156,-2.69532 4.39669,-2.31819 6.92538,-4.43199 9.72723,-8.13124 2.29776,-3.03372 2.38912,-3.10685 4.15663,-3.32758 2.31123,-0.28863 14.80959,-0.3019 15.09546,-0.016 0.51206,0.51205 -5.31123,8.68242 -9.87597,13.85651 -5.47996,6.21148 -15.08187,14.13328 -22.42281,18.49935 -4.888,2.90718 -10.44728,5.50148 -10.44728,4.87534 z"
     style="opacity:0.25;fill:#000080;fill-opacity:1;stroke-width:0.361446" />
  <path
     id="path178"
     d="m 183.25301,230.62766 c 0,-0.0855 1.35404,-3.37918 3.00898,-7.31927 1.65493,-3.9401 3.69459,-8.80411 4.53258,-10.80892 0.83798,-2.00481 1.76792,-3.99392 2.06653,-4.42025 0.29861,-0.42633 2.28456,-1.78952 4.41321,-3.02932 3.80365,-2.21539 5.72701,-3.89161 10.37629,-9.043 l 1.80723,-2.0024 5.17566,-0.23151 c 2.84662,-0.12733 6.46726,-0.12379 8.04588,0.008 l 2.87022,0.23937 -0.96209,1.66459 c -5.15252,8.91478 -17.21714,20.97273 -28.5804,28.5646 -4.94149,3.30145 -12.75409,7.20848 -12.75409,6.37825 z"
     style="opacity:0.25;fill:#000080;fill-opacity:1;stroke-width:0.361446" />
  <path
     id="path180"
     d="m 141.94744,235.93373 c -3.60193,-4.96047 -10.7432,-19.12799 -14.21793,-28.20686 -1.55029,-4.05063 -4.86746,-13.90217 -4.72803,-14.0416 0.22528,-0.22528 10.31423,-0.47771 26.69392,-0.6679 l 15.77973,-0.18323 0.90436,1.53474 c 0.4974,0.8441 2.12864,3.22215 3.62497,5.28454 l 2.72061,3.7498 -0.66306,1.67189 c -3.05669,7.70737 -9.64613,20.74493 -14.77449,29.23212 l -2.02022,3.34337 h -6.0366 -6.0366 z"
     style="opacity:0.25;fill:#000080;fill-opacity:1;stroke-width:0.361446" />
  <path
     id="path182"
     d="m 207.61246,172.88474 c -0.41857,-0.6589 -2.00618,-2.68794 -3.52802,-4.50898 l -2.76698,-3.31099 -0.008,-14.03841 c -0.007,-13.11123 -0.39087,-23.45656 -0.9204,-24.83649 -0.21008,-0.54747 1.1284,-0.58715 16.89019,-0.50066 l 17.11835,0.0939 1.18631,5.24097 c 2.37722,10.50225 2.38467,26.26188 0.0181,38.37976 l -0.75416,3.86169 -2.2131,0.19592 c -1.21721,0.10776 -7.17395,0.29162 -13.2372,0.40859 l -11.0241,0.21266 z"
     style="opacity:0.25;fill:#000080;fill-opacity:1;stroke-width:0.361446" />
  <path
     id="path184"
     d="m 207.25676,172.18478 c -0.7127,-0.97089 -2.33883,-3.01978 -3.61364,-4.5531 l -2.31782,-2.78785 0.0106,-5.61468 c 0.0199,-10.50194 -0.35195,-30.91145 -0.58473,-32.0942 l -0.2319,-1.1783 16.92157,0.094 16.92157,0.094 0.827,3.79518 c 2.49164,11.43443 2.56666,27.51972 0.18626,39.93976 l -0.62347,3.25301 -4.33395,0.23601 c -2.38367,0.1298 -8.27859,0.31374 -13.09983,0.40875 l -8.76588,0.17274 z"
     style="opacity:0.25;fill:#000080;fill-opacity:1;stroke-width:0.361446" />
  <path
     id="path186"
     d="m 208.11417,173.26833 c -0.10967,-0.28581 -1.66732,-2.3299 -3.46144,-4.54241 l -3.26202,-4.02275 -0.16156,-18.73713 c -0.0889,-10.30542 -0.27698,-19.00445 -0.41806,-19.33119 -0.23653,-0.54782 1.04647,-0.57901 16.48428,-0.4007 11.10055,0.12822 16.82334,0.32136 16.98583,0.57328 0.36779,0.5702 1.68099,7.87981 2.15365,11.98775 0.54159,4.70706 0.52478,18.11221 -0.0288,22.95181 -0.43026,3.7616 -1.32339,9.39899 -1.66738,10.52441 -0.25998,0.85058 -1.96298,0.99578 -14.91335,1.2715 -9.83635,0.20943 -11.54077,0.16947 -11.71116,-0.27457 z"
     style="opacity:0.25;fill:#000080;fill-opacity:1;stroke-width:0.361446" />
  <path
     id="path188"
     d="m 209.23277,173.34691 c -1.08129,-0.24454 -7.37917,-7.91492 -7.64639,-9.31278 -0.16065,-0.84039 -0.20158,-3.65416 -0.37105,-25.51003 l -0.0946,-12.1988 h 9.9841 c 5.49125,0 12.92492,0.10652 16.51925,0.23672 l 6.53516,0.23672 0.4019,1.59611 c 1.77111,7.03371 2.61792,20.99321 1.85875,30.64129 -0.41144,5.22892 -1.55813,13.0298 -1.97686,13.44853 -0.58573,0.58573 -23.03745,1.35362 -25.21027,0.86224 z"
     style="opacity:0.25;fill:#000080;fill-opacity:1;stroke-width:0.361446" />
  <path
     id="path190"
     d="m 196.98795,106.27371 c 0,-1.04379 -4.01679,-14.423643 -5.62785,-18.74624 -0.90091,-2.417217 -2.94438,-7.45827 -4.54105,-11.202341 -1.59668,-3.744071 -2.81705,-6.893391 -2.71195,-6.998491 0.27826,-0.278265 10.37686,5.047474 13.77408,7.264099 9.15369,5.972601 19.07618,15.998086 26.30316,26.576173 l 2.11667,3.09815 -2.45773,0.22619 c -1.35176,0.1244 -7.9472,0.24639 -14.65653,0.27108 -10.53478,0.0388 -12.1988,-0.0279 -12.1988,-0.48862 z"
     style="opacity:0.25;fill:#000080;fill-opacity:1;stroke-width:0.361446" />
  <path
     id="path192"
     d="m 196.98795,105.7611 c 0,-1.9305 -5.08802,-17.265853 -8.67137,-26.135643 -2.18169,-5.400283 -3.89706,-9.888352 -3.81192,-9.973487 0.18717,-0.187173 7.59609,3.675623 11.49706,5.994233 4.50386,2.676948 8.75114,6.053906 13.89337,11.046433 5.52204,5.361285 8.49466,8.77891 12.92323,14.857844 2.74591,3.7692 3.06344,4.35499 2.48428,4.58303 -0.36523,0.14381 -6.88543,0.2729 -14.48935,0.28687 -13.33612,0.0245 -13.8253,0.001 -13.8253,-0.65928 z"
     style="opacity:0.25;fill:#000080;fill-opacity:1;stroke-width:0.361446" />
  <path
     id="path194"
     d="m 199.91341,106.13678 -2.67696,-0.23317 -0.846,-3.19306 c -1.37078,-5.17377 -4.89221,-15.364127 -8.38671,-24.269529 -1.7926,-4.568281 -3.20506,-8.360185 -3.13879,-8.426453 0.17375,-0.173753 5.30119,2.442821 9.45758,4.82628 5.80937,3.331357 10.04732,6.747251 16.96988,13.678147 6.04707,6.054359 12.04434,13.264645 13.70632,16.478555 l 0.562,1.08679 -4.25627,0.001 c -2.34095,3.6e-4 -7.50928,0.0648 -11.48518,0.1428 -3.97591,0.078 -8.43355,0.0369 -9.90587,-0.0913 z"
     style="opacity:0.25;fill:#000080;fill-opacity:1;stroke-width:0.361446" />
  <path
     id="path196"
     d="m 198.18172,105.83175 c -0.61455,-0.11927 -0.92527,-0.61912 -1.3737,-2.20981 -1.32842,-4.712231 -5.44806,-16.714228 -8.45965,-24.646036 -1.77377,-4.671687 -3.16676,-8.552894 -3.09554,-8.624905 0.16814,-0.169984 7.5962,3.736307 10.72623,5.640743 6.07601,3.696888 14.00384,10.854325 21.52128,19.429945 3.81379,4.350634 7.68038,9.551883 7.68038,10.331483 0,0.32374 -25.35564,0.39754 -26.999,0.0786 z"
     style="opacity:0.25;fill:#000080;fill-opacity:1;stroke-width:0.361446" />
  <path
     id="path198"
     d="m 77.078313,105.84398 c -1.043674,-0.0874 -1.89759,-0.28405 -1.89759,-0.43706 0,-0.41132 3.367206,-5.22773 5.970022,-8.53945 2.608411,-3.318841 11.080755,-11.811191 14.81311,-14.84809 5.200595,-4.231561 17.342545,-11.718175 19.004775,-11.718175 0.6219,0 0.20569,1.266423 -2.74066,8.339166 -3.50991,8.425552 -4.77684,11.190295 -5.48798,11.9761 -0.32328,0.357214 -1.66028,1.243459 -2.97111,1.969434 -5.479923,3.034925 -7.549451,4.764547 -10.579712,8.842065 -1.584493,2.1321 -3.141944,3.97671 -3.461003,4.09915 -0.749451,0.28759 -10.178322,0.52377 -12.649852,0.31686 z"
     style="opacity:0.25;fill:#000080;fill-opacity:1;stroke-width:0.361446" />
  <path
     id="path200"
     d="m 75.542169,105.24064 c 0,-0.50323 1.827824,-3.2299 4.643784,-6.927387 4.09948,-5.382808 13.66093,-14.742857 19.030914,-18.63005 3.241753,-2.346623 9.759703,-6.397731 13.012053,-8.087394 2.96427,-1.540004 3.18503,-1.338852 2.00171,1.823872 -1.24223,3.320141 -5.42677,13.150014 -6.51901,15.313711 -0.92095,1.824398 -1.31714,2.184424 -4.38589,3.985486 -5.288918,3.104088 -7.23881,4.756915 -10.256782,8.694162 -1.532348,1.9991 -3.185621,3.78663 -3.673939,3.97229 -0.488319,0.18566 -3.804974,0.33756 -7.370346,0.33756 -5.163262,0 -6.482494,-0.0981 -6.482494,-0.48225 z"
     style="opacity:0.25;fill:#000080;fill-opacity:1;stroke-width:0.361446" />
  <path
     id="path202"
     d="m 67.508695,173.07543 c -1.649701,-0.15696 -1.721755,-0.21296 -2.104929,-1.63596 -1.108234,-4.11567 -1.765215,-13.7902 -1.801912,-26.53449 -0.02061,-7.15603 0.03649,-7.81333 1.079761,-12.42963 0.605835,-2.68073 1.101518,-4.97546 1.101518,-5.0994 0,-0.35341 7.665731,-0.67813 17.349397,-0.73491 l 8.855422,-0.0519 3.017671,3.71986 3.017672,3.71987 -0.228482,17.92533 c -0.125666,9.85894 -0.314367,18.6166 -0.419337,19.46148 l -0.190854,1.53615 h -5.883296 c -3.235813,0 -9.528558,0.0644 -13.983878,0.14307 -4.455319,0.0787 -8.869258,0.0699 -9.808753,-0.0194 z"
     style="opacity:0.25;fill:#000080;fill-opacity:1;stroke-width:0.361446" />
  <path
     id="path204"
     d="m 65.788525,172.23899 c -1.179552,-2.20401 -2.448666,-21.16035 -2.069651,-30.91369 0.255399,-6.57227 1.747899,-13.74191 2.92887,-14.06965 0.419042,-0.11628 6.292015,-0.30785 13.051051,-0.42569 l 12.289157,-0.21426 2.996692,3.74034 2.996692,3.74035 -0.20397,14.2771 c -0.112183,7.85241 -0.298387,16.59488 -0.413786,19.42771 l -0.209816,5.15061 H 81.661888 c -15.048958,0 -15.502782,-0.0204 -15.873363,-0.71282 z"
     style="opacity:0.25;fill:#000080;fill-opacity:1;stroke-width:0.361446" />
  <path
     id="path206"
     d="m 110.64479,227.51441 c -3.93472,-2.07832 -10.853181,-6.55833 -13.958043,-9.03844 -2.846667,-2.27387 -12.517824,-12.0413 -15.519917,-15.67441 -2.662668,-3.22234 -5.986107,-7.91747 -5.986107,-8.45676 0,-0.44402 6.111083,-0.74619 17.673631,-0.8739 l 8.818206,-0.0974 2.78156,8.49398 c 1.52986,4.67169 4.36396,12.6977 6.298,17.83559 1.93405,5.13789 3.45994,9.39813 3.39087,9.4672 -0.0691,0.0691 -1.64326,-0.67606 -3.4982,-1.65585 z"
     style="opacity:0.25;fill:#000080;fill-opacity:1;stroke-width:0.361446" />
  <path
     id="path208"
     d="m 110.22883,227.10961 c -5.47826,-2.93047 -12.171486,-7.54026 -16.08027,-11.07488 -5.232007,-4.73119 -12.82619,-13.00348 -16.149724,-17.59178 l -2.873269,-3.96669 1.021554,-0.292 c 0.561855,-0.1606 6.533276,-0.3274 13.269824,-0.37066 l 12.248275,-0.0787 2.7841,8.31325 c 1.53125,4.57229 4.29396,12.42738 6.13934,17.45576 1.84539,5.02838 3.28922,9.20853 3.20851,9.28924 -0.0807,0.0807 -1.68645,-0.67691 -3.56834,-1.68358 z"
     style="opacity:0.25;fill:#000080;fill-opacity:1;stroke-width:0.361446" />
  <path
     id="path210"
     d="m 142.55454,236.63663 c -2.66828,-3.42532 -9.47916,-16.39751 -13.03637,-24.8294 -2.68292,-6.35953 -6.44032,-17.49953 -6.03807,-17.90178 0.19052,-0.19053 6.84031,-0.42029 15.32581,-0.52953 8.2441,-0.10614 17.63234,-0.26997 20.86276,-0.36408 3.23043,-0.0941 5.8735,-0.0296 5.8735,0.14327 0,0.17291 1.54518,2.5189 3.43373,5.21331 1.88856,2.69441 3.43374,5.06746 3.43374,5.27344 0,1.59458 -9.21444,20.32985 -14.27951,29.03381 l -2.88917,4.96482 -5.96385,-0.0149 -5.96386,-0.0149 -0.75871,-0.97397 z"
     style="opacity:0.25;fill:#000080;fill-opacity:1;stroke-width:0.361446" />
  <path
     id="path212"
     d="m 183.61446,230.28556 c 0,-0.20603 5.86298,-14.38705 7.553,-18.26875 0.81534,-1.87269 1.75117,-3.70184 2.07963,-4.06478 0.32845,-0.36294 2.23976,-1.65671 4.24734,-2.87505 2.89792,-1.75864 4.53426,-3.11835 7.94025,-6.59787 l 4.2901,-4.38272 7.41769,-0.11149 c 4.15565,-0.0625 7.56271,0.0335 7.74746,0.21828 0.43383,0.43383 -3.15975,5.77718 -6.86168,10.20273 -5.5025,6.57807 -14.69902,14.76475 -22.18244,19.74667 -4.95811,3.30074 -12.23135,6.94765 -12.23135,6.13298 z"
     style="opacity:0.25;fill:#000080;fill-opacity:1;stroke-width:0.361446" />
  <path
     id="path214"
     d="m 207.23481,171.39476 c -1.02101,-1.11715 -2.66207,-3.10702 -3.6468,-4.42193 l -1.79042,-2.39075 -0.23494,-5.66453 c -0.12922,-3.1155 -0.23548,-11.72327 -0.23614,-19.12839 l -0.001,-13.46386 7.86145,0.0332 c 10.22121,0.0432 24.55302,0.45335 24.8096,0.71004 0.41169,0.41186 1.35691,5.74336 1.88677,10.64228 0.57112,5.2805 0.77054,18.21846 0.34286,22.24424 -0.443,4.16992 -1.29565,10.268 -1.59041,11.37445 -0.25672,0.96369 -0.47985,1.10651 -2.07009,1.32509 -0.98029,0.13473 -6.66303,0.3634 -12.62832,0.50815 l -10.84597,0.26317 z"
     style="opacity:0.25;fill:#000080;fill-opacity:1;stroke-width:0.361446" />
  <path
     id="path216"
     d="m 142.22892,173.2793 c -10.53615,-0.15274 -19.9999,-0.38061 -21.03057,-0.50638 -1.66983,-0.20376 -1.89432,-0.33441 -2.06114,-1.19959 -0.10297,-0.534 -0.29174,-8.20887 -0.4195,-17.05526 l -0.23228,-16.08434 1.75126,-1.06639 c 3.54435,-2.15825 7.2522,-5.0598 10.30409,-8.06339 l 3.13115,-3.08158 19.82066,0.27616 c 10.90137,0.15188 21.3547,0.37836 23.22964,0.50327 l 3.40896,0.22712 0.28877,1.08433 c 0.41347,1.55265 1.0673,24.7445 0.79482,28.19277 -0.12568,1.59037 -0.36346,3.15501 -0.52842,3.47699 -0.16496,0.32198 -2.13536,1.88244 -4.37868,3.4677 -2.61286,1.84639 -5.33319,4.20158 -7.56911,6.55313 l -3.49035,3.67086 -1.93134,-0.0588 c -1.06223,-0.0324 -10.55182,-0.18382 -21.08796,-0.33656 z"
     style="opacity:0.25;fill:#000080;fill-opacity:1;stroke-width:0.361446" />
  <path
     id="path218"
     d="m 134.54819,106.08375 c -0.44729,-0.18566 -0.81325,-0.47317 -0.81325,-0.63892 0,-0.16574 -1.07069,-1.91948 -2.3793,-3.89719 -3.00634,-4.54347 -3.40383,-5.310948 -3.40383,-6.57205 0,-1.626373 11.24154,-23.99922 14.6833,-29.222604 0.66587,-1.010557 1.63408,-2.030296 2.15159,-2.266087 0.5175,-0.235791 3.05255,-0.605461 5.63344,-0.821489 4.65795,-0.389884 4.69905,-0.38664 5.57925,0.440266 1.28154,1.203939 4.87351,6.865133 7.36011,11.600035 4.79945,9.138946 12.77561,29.580859 11.88828,30.468189 -0.15369,0.1537 -19.15044,0.79514 -31.57308,1.06609 -4.78887,0.10445 -8.65803,0.0382 -9.12651,-0.15624 z"
     style="opacity:0.25;fill:#000080;fill-opacity:1;stroke-width:0.361446" />
  <path
     id="path220"
     d="m 203.90847,105.75735 -6.27226,-0.21518 -3.19331,-9.578315 c -1.75631,-5.268072 -4.49304,-13.073293 -6.0816,-17.344935 -1.58856,-4.271642 -2.82772,-7.827198 -2.75368,-7.901236 0.19003,-0.190038 8.60962,4.251306 11.11762,5.864559 8.3711,5.384662 22.50128,19.667589 27.84564,28.146677 l 0.62651,0.99397 -5.15894,0.003 c -2.83741,10e-4 -6.21616,0.0576 -7.50833,0.12482 -1.29217,0.0672 -5.17191,0.0254 -8.62165,-0.0929 z"
     style="opacity:0.25;fill:#000080;fill-opacity:1;stroke-width:0.361446" />
</svg>
